<svg width="18" height="18" viewBox="0 0 18 18" fill="none" xmlns="http://www.w3.org/2000/svg">
<g clip-path="url(#clip0_1179_1284)">
<path fill-rule="evenodd" clip-rule="evenodd" d="M12.063 1.5C14.7165 1.5 16.5 3.207 16.5 5.74875V12.2505C16.5 14.7922 14.7165 16.5 12.063 16.5H5.937C3.2835 16.5 1.5 14.7922 1.5 12.2505V5.74875C1.5 3.207 3.2835 1.5 5.937 1.5H12.063ZM12.063 2.625H5.937C3.92475 2.625 2.625 3.85125 2.625 5.74875V12.2505C2.625 14.148 3.92475 15.375 5.937 15.375H12.063C14.0752 15.375 15.375 14.148 15.375 12.2505V5.74875C15.375 3.85125 14.0752 2.625 12.063 2.625ZM9.63848 5.79075L12.4564 8.5967C12.4775 8.61717 12.4969 8.63927 12.5146 8.6628L12.4615 8.60175C12.488 8.62795 12.5117 8.65657 12.5322 8.6871C12.5411 8.70093 12.5498 8.71524 12.5579 8.72994C12.5645 8.74142 12.5705 8.75341 12.5761 8.7656C12.5812 8.77732 12.5862 8.78909 12.5907 8.80105C12.5953 8.81271 12.5994 8.82461 12.603 8.83664C12.6157 8.8791 12.6237 8.92369 12.6261 8.96975C12.627 8.97996 12.6272 8.98997 12.6272 9L12.6248 9.02925L12.6218 9.07629C12.6177 9.10613 12.6113 9.13522 12.6028 9.16338C12.5994 9.17539 12.5953 9.18729 12.5909 9.19904C12.5862 9.21091 12.5812 9.22268 12.5759 9.23423C12.5705 9.24659 12.5645 9.25858 12.5581 9.27034C12.5498 9.28476 12.5411 9.29907 12.5318 9.31293C12.5267 9.32113 12.5209 9.32922 12.5149 9.33717C12.4985 9.3586 12.481 9.37881 12.4621 9.39769L12.4615 9.39825L9.63848 12.2093C9.52898 12.3188 9.38497 12.3735 9.24172 12.3735C9.09772 12.3735 8.95297 12.3188 8.84347 12.2078C8.62448 11.9873 8.62522 11.6318 8.84497 11.4128L10.7025 9.5625H5.93542C5.62493 9.5625 5.37292 9.3105 5.37292 9C5.37292 8.6895 5.62493 8.4375 5.93542 8.4375H10.7025L8.84497 6.58725C8.62522 6.36825 8.62448 6.01275 8.84347 5.79225C9.06247 5.57175 9.41797 5.57175 9.63848 5.79075Z" fill="#FFFFFE"/>
</g>
<defs>
<clipPath id="clip0_1179_1284">
<rect width="18" height="18" fill="white"/>
</clipPath>
</defs>
</svg>
