<svg width="18" height="18" viewBox="0 0 18 18" fill="none" xmlns="http://www.w3.org/2000/svg">
<g clip-path="url(#clip0_1179_1289)">
<path d="M8.79429 15C8.50952 15 8.27418 14.7884 8.23693 14.5138L8.23179 14.4375L8.23224 4.5495L4.6746 8.12174C4.4554 8.34188 4.09925 8.34265 3.8791 8.12345C3.67897 7.92418 3.66015 7.61173 3.82306 7.39117L3.87739 7.32796L8.39539 2.79046C8.42428 2.76144 8.45555 2.73624 8.48858 2.71485C8.49852 2.7088 8.50869 2.70265 8.51906 2.69682C8.52795 2.69146 8.53718 2.68661 8.54652 2.68204C8.5601 2.67569 8.57413 2.66949 8.58845 2.66385C8.59949 2.65928 8.61023 2.65546 8.62105 2.65197C8.63447 2.64783 8.64877 2.6438 8.66329 2.64034C8.67343 2.63776 8.68319 2.63572 8.69298 2.63394C8.70755 2.63144 8.72263 2.62931 8.73789 2.62779C8.74953 2.62648 8.76106 2.62569 8.77261 2.62525C8.77961 2.62514 8.78693 2.625 8.79429 2.625L8.81608 2.62528C8.82712 2.62571 8.83815 2.62647 8.84916 2.62754L8.79429 2.625C8.82979 2.625 8.86452 2.62829 8.89819 2.63458C8.90623 2.63603 8.91449 2.63777 8.92271 2.6397C8.93964 2.64369 8.95595 2.64831 8.97194 2.65363C8.97988 2.65624 8.98837 2.65928 8.99679 2.66253C9.01371 2.6691 9.02985 2.67624 9.04557 2.6841C9.05296 2.68775 9.06069 2.69184 9.06835 2.69613C9.08084 2.70316 9.09272 2.7104 9.10429 2.71805C9.11248 2.72346 9.12101 2.72944 9.1294 2.73569L9.13588 2.74055C9.15568 2.75571 9.17444 2.77215 9.19204 2.78975L9.19256 2.79043L13.7113 7.32793C13.9305 7.54805 13.9298 7.90421 13.7097 8.12342C13.5096 8.32271 13.197 8.34021 12.9771 8.17637L12.9142 8.12177L9.35724 4.551L9.35679 14.4375C9.35679 14.7482 9.10495 15 8.79429 15Z" fill="#FFFFFE"/>
</g>
<defs>
<clipPath id="clip0_1179_1289">
<rect width="18" height="18" fill="white"/>
</clipPath>
</defs>
</svg>
