<svg width="18" height="18" viewBox="0 0 18 18" fill="none" xmlns="http://www.w3.org/2000/svg">
<g clip-path="url(#clip0_1179_1169)">
<path d="M15 9.20571C15 9.49048 14.7884 9.72582 14.5138 9.76307L14.4375 9.76821L4.5495 9.76776L8.12174 13.3254C8.34188 13.5446 8.34265 13.9008 8.12345 14.1209C7.92418 14.321 7.61173 14.3399 7.39117 14.1769L7.32796 14.1226L2.79046 9.60461C2.76144 9.57572 2.73624 9.54445 2.71485 9.51142C2.7088 9.50148 2.70265 9.49131 2.69682 9.48094C2.69146 9.47205 2.68661 9.46282 2.68204 9.45348C2.67569 9.4399 2.66949 9.42587 2.66385 9.41155C2.65928 9.40051 2.65546 9.38977 2.65197 9.37895C2.64783 9.36553 2.6438 9.35123 2.64034 9.33671C2.63776 9.32657 2.63572 9.31681 2.63394 9.30702C2.63144 9.29245 2.62931 9.27737 2.62779 9.26211C2.62648 9.25047 2.62569 9.23894 2.62525 9.22739C2.62514 9.22039 2.625 9.21307 2.625 9.20571L2.62528 9.18392C2.62571 9.17288 2.62647 9.16185 2.62754 9.15084L2.625 9.20571C2.625 9.17021 2.62829 9.13548 2.63458 9.10181C2.63603 9.09377 2.63777 9.08551 2.6397 9.07729C2.64369 9.06036 2.64831 9.04405 2.65363 9.02806C2.65624 9.02012 2.65928 9.01163 2.66253 9.00321C2.6691 8.98629 2.67624 8.97015 2.6841 8.95443C2.68775 8.94704 2.69184 8.93931 2.69613 8.93165C2.70316 8.91916 2.7104 8.90728 2.71805 8.89571C2.72346 8.88752 2.72944 8.87899 2.73569 8.8706L2.74055 8.86412C2.75571 8.84432 2.77215 8.82556 2.78975 8.80796L2.79043 8.80744L7.32793 4.28869C7.54805 4.06947 7.90421 4.07021 8.12342 4.29033C8.32271 4.49045 8.34021 4.80298 8.17637 5.02285L8.12177 5.08583L4.551 8.64276L14.4375 8.64321C14.7482 8.64321 15 8.89505 15 9.20571Z" fill="#FFFFFE"/>
</g>
<defs>
<clipPath id="clip0_1179_1169">
<rect width="18" height="18" fill="white"/>
</clipPath>
</defs>
</svg>
