<svg width="18" height="18" viewBox="0 0 18 18" fill="none" xmlns="http://www.w3.org/2000/svg">
<g clip-path="url(#clip0_1179_1179)">
<path fill-rule="evenodd" clip-rule="evenodd" d="M8.92575 5.3361L2.97225 9.08685C2.808 9.19035 2.70975 9.3696 2.70975 9.5631C2.70975 9.75585 2.808 9.93585 2.97225 10.0386L8.92575 13.7894C9.0165 13.8471 9.12075 13.8764 9.225 13.8764C9.31875 13.8764 9.41175 13.8524 9.4965 13.8059C9.6765 13.7069 9.7875 13.5186 9.7875 13.3139L9.78825 10.125L15.9375 10.1253C16.248 10.1253 16.5 9.8733 16.5 9.5628C16.5 9.2523 16.248 9.0003 15.9375 9.0003L9.78825 9L9.7875 5.81235C9.7875 5.60685 9.6765 5.4186 9.4965 5.3196C9.31725 5.22135 9.0975 5.22735 8.92575 5.3361ZM8.6625 6.8316L8.66261 9.55142C8.66254 9.5552 8.6625 9.559 8.6625 9.5628L8.66325 9.57375L8.6625 12.2939L4.3275 9.5631L8.6625 6.8316Z" fill="#FFFFFE"/>
</g>
<defs>
<clipPath id="clip0_1179_1179">
<rect width="18" height="18" fill="white"/>
</clipPath>
</defs>
</svg>
