<svg width="18" height="18" viewBox="0 0 18 18" fill="none" xmlns="http://www.w3.org/2000/svg">
<g clip-path="url(#clip0_1179_1304)">
<path fill-rule="evenodd" clip-rule="evenodd" d="M9 1.5C13.1355 1.5 16.5 4.8645 16.5 9C16.5 13.1355 13.1355 16.5 9 16.5C4.8645 16.5 1.5 13.1355 1.5 9C1.5 4.8645 4.8645 1.5 9 1.5ZM9 2.625C5.48475 2.625 2.625 5.48475 2.625 9C2.625 12.5153 5.48475 15.375 9 15.375C12.5153 15.375 15.375 12.5153 15.375 9C15.375 5.48475 12.5153 2.625 9 2.625ZM9.39878 7.0698L12.002 9.68505C12.221 9.90555 12.2203 10.2611 12.0005 10.4801C11.891 10.5896 11.747 10.6443 11.6038 10.6443C11.4598 10.6443 11.315 10.5896 11.2055 10.4785L8.99977 8.2638L6.79553 10.4785C6.57652 10.699 6.22027 10.699 5.99977 10.4801C5.78003 10.2611 5.77853 9.90555 5.99828 9.68505L8.60153 7.0698C8.81228 6.85755 9.18727 6.85755 9.39878 7.0698Z" fill="#FFFFFE"/>
</g>
<defs>
<clipPath id="clip0_1179_1304">
<rect width="18" height="18" fill="white"/>
</clipPath>
</defs>
</svg>
