<svg width="18" height="18" viewBox="0 0 18 18" fill="none" xmlns="http://www.w3.org/2000/svg">
<g clip-path="url(#clip0_1179_1149)">
<path fill-rule="evenodd" clip-rule="evenodd" d="M8.81336 2.25C9.12386 2.25 9.37586 2.502 9.37586 2.8125L9.37575 8.9625H12.5644C12.7692 8.9625 12.9574 9.0735 13.0564 9.2535C13.1562 9.43275 13.1494 9.65175 13.0399 9.82425L9.28916 15.777C9.18641 15.9412 9.00641 16.0402 8.81366 16.0402C8.62016 16.0402 8.44091 15.9412 8.33741 15.777L4.58667 9.82425C4.47717 9.65175 4.47117 9.43275 4.57017 9.2535C4.66917 9.0735 4.85742 8.9625 5.06292 8.9625H8.25075L8.25086 2.8125C8.25086 2.502 8.50286 2.25 8.81336 2.25ZM11.5444 10.0875H6.08217L8.81366 14.4218L11.5444 10.0875Z" fill="#FFFFFE"/>
</g>
<defs>
<clipPath id="clip0_1179_1149">
<rect width="18" height="18" fill="white"/>
</clipPath>
</defs>
</svg>
