<svg width="18" height="18" viewBox="0 0 18 18" fill="none" xmlns="http://www.w3.org/2000/svg">
<g clip-path="url(#clip0_1179_1249)">
<path fill-rule="evenodd" clip-rule="evenodd" d="M9 1.5C13.1355 1.5 16.5 4.8645 16.5 9C16.5 13.1355 13.1355 16.5 9 16.5C4.8645 16.5 1.5 13.1355 1.5 9C1.5 4.8645 4.8645 1.5 9 1.5ZM9 2.625C5.48475 2.625 2.625 5.48475 2.625 9C2.625 12.5153 5.48475 15.375 9 15.375C12.5153 15.375 15.375 12.5153 15.375 9C15.375 5.48475 12.5153 2.625 9 2.625ZM8.3157 5.99828L10.9302 8.60153C11.0359 8.70728 11.0952 8.85052 11.0952 8.99977C11.0952 9.14977 11.0359 9.29303 10.9302 9.39878L8.3157 12.0013C8.2062 12.1108 8.0622 12.1655 7.91895 12.1655C7.77495 12.1655 7.6302 12.1108 7.5207 11.9998C7.3017 11.7793 7.30245 11.4238 7.5222 11.2048L9.7362 8.99977L7.5222 6.79553C7.30245 6.57652 7.3017 6.22027 7.5207 5.99977C7.7397 5.77852 8.0952 5.78003 8.3157 5.99828Z" fill="#FFFFFE"/>
</g>
<defs>
<clipPath id="clip0_1179_1249">
<rect width="18" height="18" fill="white"/>
</clipPath>
</defs>
</svg>
