<svg width="18" height="18" viewBox="0 0 18 18" fill="none" xmlns="http://www.w3.org/2000/svg">
<g clip-path="url(#clip0_1179_1159)">
<path fill-rule="evenodd" clip-rule="evenodd" d="M9 1.5C13.1355 1.5 16.5 4.8645 16.5 9C16.5 13.1355 13.1355 16.5 9 16.5C4.8645 16.5 1.5 13.1355 1.5 9C1.5 4.8645 4.8645 1.5 9 1.5ZM9 2.625C5.48475 2.625 2.625 5.48475 2.625 9C2.625 12.5153 5.48475 15.375 9 15.375C12.5153 15.375 15.375 12.5153 15.375 9C15.375 5.48475 12.5153 2.625 9 2.625ZM12.0008 7.51942C12.2205 7.73842 12.2213 8.09467 12.0023 8.31518L9.39825 10.9297C9.31425 11.0149 9.20529 11.0698 9.08865 11.0884L9 11.0954C8.85075 11.0954 8.70675 11.0362 8.60175 10.9297L5.9985 8.31518C5.77875 8.09467 5.78025 7.73842 6 7.51942C6.2205 7.30043 6.57675 7.30042 6.79575 7.52092L9 9.73643L11.205 7.52092C11.424 7.30042 11.7803 7.30043 12.0008 7.51942Z" fill="#FFFFFE"/>
</g>
<defs>
<clipPath id="clip0_1179_1159">
<rect width="18" height="18" fill="white"/>
</clipPath>
</defs>
</svg>
