<svg width="18" height="18" viewBox="0 0 18 18" fill="none" xmlns="http://www.w3.org/2000/svg">
<g clip-path="url(#clip0_1179_1164)">
<path fill-rule="evenodd" clip-rule="evenodd" d="M12.2513 1.5C14.793 1.5 16.5 3.2835 16.5 5.937V12.063C16.5 14.7165 14.793 16.5 12.2513 16.5H5.7495C3.20775 16.5 1.5 14.7165 1.5 12.063V5.937C1.5 3.2835 3.20775 1.5 5.7495 1.5H12.2513ZM12.2513 2.625H5.7495C3.852 2.625 2.625 3.92475 2.625 5.937V12.063C2.625 14.0752 3.852 15.375 5.7495 15.375H12.2513C14.1488 15.375 15.375 14.0752 15.375 12.063V5.937C15.375 3.92475 14.1488 2.625 12.2513 2.625ZM9 5.37292C9.3105 5.37292 9.5625 5.62493 9.5625 5.93542V10.7025L11.4128 8.84468C11.6325 8.62343 11.988 8.62493 12.2078 8.84317C12.4275 9.06218 12.429 9.41843 12.2093 9.63893L9.39825 12.4619C9.37987 12.4799 9.36086 12.4966 9.3408 12.5119L9.39825 12.4619C9.36873 12.4919 9.33612 12.5181 9.30118 12.5403C9.29265 12.5449 9.28434 12.5499 9.27589 12.5547C9.25989 12.5645 9.24287 12.573 9.22547 12.5806C9.22058 12.582 9.21608 12.5839 9.21154 12.5857C9.19412 12.5935 9.17592 12.5999 9.15743 12.6052C9.14595 12.6079 9.13454 12.6108 9.123 12.6134C9.10892 12.6172 9.09475 12.6198 9.08048 12.6219C9.069 12.6229 9.05701 12.6242 9.04491 12.6252C9.0298 12.6271 9.01493 12.6277 9 12.6277L8.95575 12.624L8.92371 12.6218C8.92218 12.6216 8.92065 12.6214 8.91913 12.6211L9 12.6277C8.95837 12.6277 8.91714 12.6231 8.87706 12.6141C8.86546 12.6108 8.85405 12.6079 8.84278 12.6046C8.82408 12.5999 8.80588 12.5935 8.78805 12.5863C8.78392 12.5839 8.77942 12.582 8.77495 12.58C8.75713 12.573 8.74011 12.5645 8.72355 12.5551C8.71566 12.5499 8.70735 12.5449 8.69918 12.5397C8.68511 12.5316 8.67175 12.5222 8.65879 12.5123C8.63701 12.4949 8.61612 12.4764 8.5967 12.4564L5.79075 9.63893C5.571 9.41843 5.5725 9.06218 5.79225 8.84317C6.01275 8.62493 6.36825 8.62343 6.58725 8.84468L8.4375 10.7025V5.93542C8.4375 5.62493 8.6895 5.37292 9 5.37292Z" fill="#FFFFFE"/>
</g>
<defs>
<clipPath id="clip0_1179_1164">
<rect width="18" height="18" fill="white"/>
</clipPath>
</defs>
</svg>
