<svg width="18" height="18" viewBox="0 0 18 18" fill="none" xmlns="http://www.w3.org/2000/svg">
<g clip-path="url(#clip0_1179_1354)">
<path fill-rule="evenodd" clip-rule="evenodd" d="M11.0258 1.5C13.5697 1.5 15.0292 2.75925 15.0292 4.953V15.855C15.0292 16.3125 14.7938 16.7243 14.3978 16.9545C14.0033 17.1855 13.5278 17.19 13.1287 16.965L8.65875 14.4398L4.1475 16.9703C3.9525 17.0798 3.73875 17.1353 3.52425 17.1353C3.303 17.1353 3.08175 17.076 2.88075 16.9575C2.4855 16.7273 2.25 16.3155 2.25 15.8588V4.81575C2.25 2.70825 3.71025 1.5 6.2565 1.5H11.0258ZM11.0258 2.625H6.2565C4.34475 2.625 3.375 3.3615 3.375 4.81575V15.8588C3.375 15.9293 3.4155 15.9675 3.44925 15.987C3.483 16.008 3.53625 16.023 3.59775 15.9885L8.38425 13.3035C8.55525 13.2083 8.7645 13.2075 8.93625 13.3043L13.6815 15.9847C13.7438 16.0208 13.797 16.0043 13.8307 15.984C13.8645 15.9637 13.9043 15.9255 13.9043 15.855L13.904 4.86753C13.8983 4.22203 13.7734 2.625 11.0258 2.625ZM11.3548 6.54637C11.6653 6.54637 11.9173 6.79838 11.9173 7.10887C11.9173 7.41937 11.6653 7.67138 11.3548 7.67138H5.86635C5.55585 7.67138 5.30385 7.41937 5.30385 7.10887C5.30385 6.79838 5.55585 6.54637 5.86635 6.54637H11.3548Z" fill="#FFFFFE"/>
</g>
<defs>
<clipPath id="clip0_1179_1354">
<rect width="18" height="18" fill="white"/>
</clipPath>
</defs>
</svg>
