<svg width="18" height="18" viewBox="0 0 18 18" fill="none" xmlns="http://www.w3.org/2000/svg">
<g clip-path="url(#clip0_1179_1359)">
<path fill-rule="evenodd" clip-rule="evenodd" d="M5.65755 14.9638C6.19305 14.9638 6.6288 15.3988 6.6288 15.9343C6.6288 16.4698 6.19305 16.9055 5.65755 16.9055C5.12205 16.9055 4.68704 16.4698 4.68704 15.9343C4.68704 15.3988 5.12205 14.9638 5.65755 14.9638ZM14.1178 14.9638C14.654 14.9638 15.0898 15.3988 15.0898 15.9343C15.0898 16.4698 14.654 16.9055 14.1178 16.9055C13.5823 16.9055 13.1473 16.4698 13.1473 15.9343C13.1473 15.3988 13.5823 14.9638 14.1178 14.9638ZM2.4507 2.25699L4.0107 2.52699C4.26195 2.57124 4.4532 2.77974 4.47495 3.03474L4.6512 5.13549L5.30658 5.13578C5.41353 5.13582 5.51934 5.13587 5.62404 5.13592L6.82726 5.13649C6.92317 5.13654 7.01801 5.13659 7.11179 5.13663L8.44033 5.13736C8.5238 5.13741 8.60626 5.13746 8.68773 5.13751L9.61873 5.1381C9.69249 5.13815 9.7653 5.1382 9.83719 5.13825L10.656 5.13886C10.7207 5.13891 10.7845 5.13896 10.8474 5.13901L11.5613 5.13962C11.6175 5.13967 11.6728 5.13972 11.7274 5.13978L12.1966 5.14024C12.2464 5.1403 12.2954 5.14035 12.3437 5.1404L12.8871 5.14103C12.9295 5.14108 12.9711 5.14114 13.0121 5.14119L13.4709 5.14183C13.5065 5.14188 13.5414 5.14194 13.5757 5.14199L13.8673 5.14248C13.8979 5.14253 13.9278 5.14259 13.9572 5.14264L14.282 5.1433C14.3069 5.14336 14.3312 5.14341 14.3549 5.14347L14.5548 5.14397C14.5755 5.14402 14.5957 5.14408 14.6155 5.14413L14.8298 5.14481C14.8458 5.14487 14.8615 5.14492 14.8767 5.14498L15.0025 5.14549C15.0153 5.14555 15.0277 5.14561 15.0398 5.14567L15.1671 5.14636C15.1763 5.14642 15.1852 5.14648 15.1938 5.14653L15.2632 5.14706C15.2701 5.14712 15.2766 5.14718 15.2829 5.14724L15.3329 5.14777C15.3377 5.14783 15.3423 5.14789 15.3467 5.14795L15.3807 5.14849C15.3839 5.14855 15.3869 5.14861 15.3897 5.14867L15.4113 5.14921C15.4132 5.14927 15.415 5.14933 15.4168 5.14939L15.4323 5.15013L15.435 5.15031C15.4423 5.15099 15.4444 5.15124 15.4444 5.15124C15.8622 5.21199 16.2297 5.43024 16.4802 5.76624C16.7307 6.10149 16.8357 6.51474 16.7757 6.92874L16.0639 11.8472C15.9297 12.7832 15.1167 13.489 14.1717 13.489H5.98095C4.9932 13.489 4.15694 12.718 4.07669 11.7317L3.3897 3.56124L2.25945 3.36624C1.9527 3.31224 1.74795 3.02199 1.80045 2.71524C1.85445 2.40849 2.1507 2.20899 2.4507 2.25699ZM5.15612 6.26075L4.7457 6.26049L5.19795 11.6395C5.23095 12.0535 5.5692 12.364 5.98245 12.364H14.1702C14.5609 12.364 14.8947 12.073 14.9502 11.6867L15.6627 6.76749C15.6792 6.65049 15.6499 6.53349 15.5787 6.43899C15.5082 6.34374 15.4047 6.28224 15.2877 6.26574C15.2823 6.26595 15.2693 6.26614 15.2492 6.26631L15.1676 6.26678C15.1506 6.26685 15.1318 6.26691 15.1114 6.26697L14.6865 6.26762C14.6506 6.26765 14.6134 6.26767 14.5747 6.26769L13.5757 6.26765C13.52 6.26762 13.4632 6.2676 13.4054 6.26758L12.2653 6.26688C12.197 6.26683 12.128 6.26678 12.0582 6.26673L11.4131 6.26621C11.3396 6.26615 11.2656 6.26609 11.1911 6.26602L10.5077 6.26542C10.4306 6.26535 10.353 6.26528 10.2752 6.26521L9.80449 6.26478C9.72552 6.26471 9.64631 6.26463 9.56692 6.26456L8.84864 6.26389C8.76855 6.26381 8.68842 6.26374 8.60828 6.26366L8.12779 6.26322C8.04783 6.26314 7.96796 6.26307 7.88823 6.263L7.41182 6.26256C7.33282 6.26249 7.25404 6.26242 7.17554 6.26235L6.47765 6.26175C6.40121 6.26169 6.32518 6.26163 6.24961 6.26156L5.36766 6.26089C5.29649 6.26084 5.22596 6.2608 5.15612 6.26075ZM12.9656 7.90772C13.2761 7.90772 13.5281 8.15972 13.5281 8.47022C13.5281 8.78072 13.2761 9.03272 12.9656 9.03272H10.8866C10.5754 9.03272 10.3241 8.78072 10.3241 8.47022C10.3241 8.15972 10.5754 7.90772 10.8866 7.90772H12.9656Z" fill="#FFFFFE"/>
</g>
<defs>
<clipPath id="clip0_1179_1359">
<rect width="18" height="18" fill="white"/>
</clipPath>
</defs>
</svg>
