<svg width="18" height="18" viewBox="0 0 18 18" fill="none" xmlns="http://www.w3.org/2000/svg">
<g clip-path="url(#clip0_1179_1369)">
<path fill-rule="evenodd" clip-rule="evenodd" d="M3.26962 3.79549C3.27112 3.79549 3.23362 3.83449 3.18637 3.88099C3.00487 4.05724 2.62912 4.42399 2.62533 5.19124C2.61937 6.26449 3.32512 8.25724 6.72337 11.6547C10.1059 15.0357 12.0956 15.7497 13.1711 15.7497H13.1869C13.9541 15.746 14.3201 15.3695 14.4971 15.1887C14.5511 15.1332 14.5946 15.0927 14.6254 15.0672C15.3724 14.3157 15.7549 13.7562 15.7511 13.3977C15.7459 13.0317 15.2906 12.599 14.6614 12.0005C14.4611 11.81 14.2436 11.603 14.0141 11.3735C13.4194 10.7802 13.1246 10.8815 12.4766 11.1095C11.5804 11.4237 10.3504 11.8512 8.43937 9.93949C6.52537 8.02699 6.95362 6.79849 7.26712 5.90224C7.49362 5.25424 7.59712 4.95874 7.00162 4.36324C6.76837 4.13074 6.55912 3.91024 6.36637 3.70774C5.77162 3.08224 5.34262 2.62999 4.97887 2.62474H4.97287C4.61362 2.62474 4.05562 3.00874 3.26587 3.79849C3.26812 3.79624 3.26962 3.79549 3.26962 3.79549ZM13.1719 16.8747C11.3029 16.8747 8.86612 15.3867 5.92837 12.4505C2.97937 9.50224 1.48912 7.05799 1.50031 5.18524C1.50712 3.94774 2.15587 3.31399 2.39962 3.07624C2.41237 3.06049 2.45587 3.01774 2.47087 3.00274C3.54637 1.92649 4.27162 1.49149 4.99312 1.49962C5.83087 1.51099 6.42712 2.13799 7.18162 2.93224C7.36837 3.12874 7.57087 3.34249 7.79662 3.56749C8.89162 4.66249 8.57962 5.55574 8.32912 6.27274C8.05612 7.05499 7.81987 7.72999 9.23437 9.14449C10.6504 10.559 11.3254 10.3227 12.1046 10.0475C12.8224 9.79699 13.7134 9.48349 14.8099 10.5785C15.0319 10.8005 15.2426 11.0007 15.4369 11.186C16.2349 11.9442 16.8649 12.5435 16.8755 13.3835C16.8844 14.0997 16.4494 14.8295 15.3754 15.9042L14.8999 15.5817L15.3019 15.9747C15.0641 16.2185 14.4311 16.868 13.1929 16.8747H13.1719Z" fill="#FFFFFE"/>
</g>
<defs>
<clipPath id="clip0_1179_1369">
<rect width="18" height="18" fill="white"/>
</clipPath>
</defs>
</svg>
