<svg width="18" height="18" viewBox="0 0 18 18" fill="none" xmlns="http://www.w3.org/2000/svg">
<g clip-path="url(#clip0_1179_1409)">
<path fill-rule="evenodd" clip-rule="evenodd" d="M15.1143 3.82679C15.3408 4.03904 15.3521 4.39529 15.1398 4.62179L10.144 9.95151C10.9885 10.527 11.4848 10.3477 12.0993 10.1277C12.7698 9.88619 13.6886 9.55769 14.7701 10.6557C14.9876 10.8777 15.1931 11.0772 15.3821 11.2617C16.1643 12.0214 16.7816 12.6214 16.7921 13.4584C16.8018 14.1724 16.3751 14.9022 15.3236 15.9762L14.8541 15.6514L15.2651 16.0347C15.0378 16.2777 14.4348 16.9227 13.2386 16.9489C13.2131 16.9497 13.1883 16.9497 13.1643 16.9497C11.516 16.9497 9.42116 15.7495 6.93072 13.3788L3.88984 16.6218C3.77884 16.7403 3.62959 16.7995 3.47959 16.7995C3.34159 16.7995 3.20359 16.7493 3.09484 16.6473C2.86834 16.435 2.85709 16.0788 3.06934 15.8523L14.3193 3.85229C14.5308 3.62504 14.8878 3.61379 15.1143 3.82679ZM9.36862 10.7797L7.70042 12.5586C10.561 15.2874 12.2548 15.866 13.2131 15.8239C13.9368 15.8089 14.2788 15.4422 14.4431 15.2667C14.4888 15.2179 14.5248 15.1819 14.5518 15.1579C15.2966 14.3959 15.6723 13.8349 15.6678 13.4719C15.6626 13.1022 15.2163 12.6687 14.5983 12.0679C14.4026 11.8782 14.1911 11.6727 13.9668 11.4447C13.3916 10.8582 13.1066 10.9602 12.4803 11.1867C11.7523 11.4487 10.7687 11.8044 9.36862 10.7797ZM4.94202 1.50037C5.77527 1.51087 6.36402 2.14012 7.10952 2.93737C7.29252 3.13312 7.49202 3.34537 7.71252 3.56962C8.78502 4.66387 8.48052 5.55487 8.23527 6.27037C8.05827 6.78862 7.90377 7.23712 8.18427 7.87537C8.30952 8.16037 8.18052 8.49262 7.89627 8.61712C7.60977 8.74162 7.27902 8.61262 7.15452 8.32837C6.69777 7.28662 6.97077 6.48862 7.17102 5.90587C7.38777 5.27362 7.49652 4.95637 6.91002 4.35862C6.68277 4.12762 6.47727 3.90787 6.28752 3.70612C5.70327 3.08062 5.28027 2.62912 4.92777 2.62537H4.92177C4.59341 2.62537 4.09102 2.96155 3.38928 3.65307L3.24825 3.79387L3.24767 3.79443L3.24627 3.79612C3.25002 3.79387 3.21477 3.83062 3.16902 3.87562C1.56252 5.46262 3.91827 8.64037 5.46552 10.3939C5.67102 10.6264 5.64927 10.9819 5.41602 11.1881C5.30952 11.2819 5.17677 11.3284 5.04402 11.3284C4.88877 11.3284 4.73352 11.2639 4.62252 11.1379C0.616016 6.59887 1.19052 4.24837 2.37852 3.07537C2.39052 3.06037 2.43177 3.01987 2.44452 3.00637C3.49752 1.93762 4.21752 1.50037 4.92027 1.50037H4.94202Z" fill="#FFFFFE"/>
</g>
<defs>
<clipPath id="clip0_1179_1409">
<rect width="18" height="18" fill="white"/>
</clipPath>
</defs>
</svg>
