<svg width="18" height="18" viewBox="0 0 18 18" fill="none" xmlns="http://www.w3.org/2000/svg">
<g clip-path="url(#clip0_1179_1414)">
<path fill-rule="evenodd" clip-rule="evenodd" d="M4.99312 1.50028C5.83087 1.51153 6.42787 2.13928 7.18312 2.93353C7.36987 3.12928 7.57162 3.34303 7.79737 3.56803C8.89162 4.66303 8.58037 5.55628 8.32912 6.27328C8.05612 7.05553 7.81987 7.73053 9.23437 9.14503C10.6489 10.5595 11.3231 10.3233 12.1046 10.048C12.8224 9.79753 13.7134 9.48403 14.8099 10.579C15.0326 10.8018 15.2426 11.0013 15.4376 11.1865C16.2349 11.9455 16.8649 12.5448 16.8755 13.3848C16.8836 14.1003 16.4486 14.8308 15.3746 15.9048L14.8991 15.5823L15.3019 15.9745C15.0641 16.2183 14.4319 16.8678 13.1936 16.8753H13.1711C11.3021 16.8753 8.86537 15.3873 5.92837 12.451C2.97937 9.50278 1.48912 7.05853 1.50031 5.18578C1.50712 3.94828 2.15587 3.31453 2.39962 3.07678L2.42043 3.05406L2.47087 3.00328C3.54712 1.92703 4.28662 1.48453 4.99312 1.50028ZM4.97887 2.62528H4.97287C4.63607 2.62528 4.12459 2.96278 3.41124 3.6557L3.26799 3.79638L3.26962 3.79603C3.26962 3.79603 3.25738 3.81007 3.23652 3.83135L3.18637 3.88153C3.00487 4.05778 2.62912 4.42453 2.62533 5.19178C2.61937 6.26503 3.32512 8.25778 6.72337 11.6553C10.1051 15.0363 12.0949 15.7503 13.1711 15.7503H13.1869C13.9541 15.7458 14.3201 15.37 14.4964 15.1893C14.5496 15.1345 14.5931 15.0933 14.6239 15.0685C15.3716 14.3163 15.7541 13.7575 15.7504 13.3983C15.7459 13.0323 15.2906 12.6003 14.6614 12.001C14.4611 11.8113 14.2436 11.6035 14.0141 11.374C13.4186 10.7808 13.1254 10.882 12.4766 11.11C11.5804 11.4243 10.3526 11.8548 8.43937 9.94003C6.52537 8.02678 6.95437 6.79903 7.26712 5.90203C7.49362 5.25403 7.59712 4.95928 7.00237 4.36378C6.76987 4.13128 6.56062 3.91078 6.36787 3.70828C5.77237 3.08278 5.34262 2.63053 4.97887 2.62528ZM11.4349 4.16841C12.9957 4.47141 14.2009 5.67591 14.5047 7.23741C14.5639 7.54341 14.3652 7.83816 14.0607 7.89741C14.0239 7.90416 13.9879 7.90791 13.9519 7.90791C13.6879 7.90791 13.4532 7.72191 13.4007 7.45341C13.1847 6.34341 12.3289 5.48766 11.2204 5.27241C10.9152 5.21316 10.7164 4.91841 10.7757 4.61316C10.8349 4.30791 11.1349 4.10841 11.4349 4.16841ZM11.39 1.50456C14.4485 1.84431 16.8238 4.21656 17.1665 7.27431C17.201 7.58331 16.979 7.86156 16.6708 7.89606C16.6498 7.89831 16.628 7.89981 16.607 7.89981C16.3243 7.89981 16.0813 7.68756 16.049 7.40031C15.7648 4.86831 13.7983 2.90331 11.2655 2.62206C10.9573 2.58756 10.7345 2.31006 10.769 2.00106C10.8028 1.69281 11.078 1.46556 11.39 1.50456Z" fill="#FFFFFE"/>
</g>
<defs>
<clipPath id="clip0_1179_1414">
<rect width="18" height="18" fill="white"/>
</clipPath>
</defs>
</svg>
