<svg width="18" height="18" viewBox="0 0 18 18" fill="none" xmlns="http://www.w3.org/2000/svg">
<g clip-path="url(#clip0_1179_1429)">
<path fill-rule="evenodd" clip-rule="evenodd" d="M12.327 0.75C15.0472 0.75 16.875 2.6595 16.875 5.50125V12.1237C16.875 14.9655 15.0472 16.875 12.327 16.875H5.298C2.57775 16.875 0.75 14.9655 0.75 12.1237V5.50125C0.75 2.6595 2.57775 0.75 5.298 0.75H12.327ZM12.327 1.875H5.298C3.219 1.875 1.875 3.29775 1.875 5.50125V12.1237C1.875 14.3272 3.219 15.75 5.298 15.75H12.327C14.4067 15.75 15.75 14.3272 15.75 12.1237V5.50125C15.75 3.29775 14.4067 1.875 12.327 1.875ZM5.34083 6.90188C5.65132 6.90188 5.90333 7.15388 5.90333 7.46438V12.6094C5.90333 12.9199 5.65132 13.1719 5.34083 13.1719C5.03032 13.1719 4.77833 12.9199 4.77833 12.6094V7.46438C4.77833 7.15388 5.03032 6.90188 5.34083 6.90188ZM8.84107 4.43887C9.15158 4.43887 9.40357 4.69088 9.40357 5.00138V12.6086C9.40357 12.9191 9.15158 13.1711 8.84107 13.1711C8.53058 13.1711 8.27857 12.9191 8.27857 12.6086V5.00138C8.27857 4.69088 8.53058 4.43887 8.84107 4.43887ZM12.2838 9.62063C12.5943 9.62063 12.8463 9.87263 12.8463 10.1831V12.6086C12.8463 12.9191 12.5943 13.1711 12.2838 13.1711C11.9733 13.1711 11.7213 12.9191 11.7213 12.6086V10.1831C11.7213 9.87263 11.9733 9.62063 12.2838 9.62063Z" fill="#FFFFFE"/>
</g>
<defs>
<clipPath id="clip0_1179_1429">
<rect width="18" height="18" fill="white"/>
</clipPath>
</defs>
</svg>
