<svg width="18" height="18" viewBox="0 0 18 18" fill="none" xmlns="http://www.w3.org/2000/svg">
<g clip-path="url(#clip0_1179_1464)">
<path fill-rule="evenodd" clip-rule="evenodd" d="M8.81133 0.750244C10.9661 0.750244 12.9911 1.58799 14.5121 3.10974C17.6561 6.25374 17.6561 11.3687 14.5121 14.5127C12.9708 16.0547 10.8956 16.8707 8.79333 16.8707C7.64733 16.8707 6.49383 16.6285 5.41458 16.129C5.09658 16.0015 4.79883 15.8815 4.58508 15.8815C4.33908 15.883 4.00833 15.997 3.68883 16.1072C3.03333 16.3322 2.21733 16.6127 1.61358 16.0112C1.01208 15.409 1.28958 14.5952 1.51308 13.9405C1.62333 13.618 1.73658 13.285 1.73658 13.033C1.73658 12.826 1.63683 12.562 1.48383 12.1817C0.0790778 9.14799 0.728578 5.49174 3.11133 3.11049C4.63233 1.58874 6.65658 0.750244 8.81133 0.750244ZM8.81208 1.87524C6.95733 1.87524 5.21508 2.59674 3.90633 3.90624C1.85583 5.95524 1.29783 9.10149 2.51658 11.7362C2.69208 12.1705 2.86158 12.5935 2.86158 13.033C2.86158 13.4717 2.71083 13.9135 2.57808 14.3035C2.46858 14.6245 2.30283 15.109 2.40933 15.2155C2.51358 15.3235 3.00108 15.1532 3.32283 15.043C3.70908 14.911 4.14708 14.7595 4.58133 14.7565C5.01633 14.7565 5.42658 14.9215 5.86083 15.0962C8.52108 16.3262 11.6673 15.7667 13.7171 13.7177C16.4216 11.0117 16.4216 6.60999 13.7171 3.90549C12.4076 2.59599 10.6661 1.87524 8.81208 1.87524ZM11.7723 8.37227C12.1863 8.37227 12.5223 8.70752 12.5223 9.12227C12.5223 9.53702 12.1863 9.87227 11.7723 9.87227C11.3583 9.87227 11.0193 9.53702 11.0193 9.12227C11.0193 8.70752 11.3515 8.37227 11.7655 8.37227H11.7723ZM8.76565 8.37227C9.17965 8.37227 9.51565 8.70752 9.51565 9.12227C9.51565 9.53702 9.17965 9.87227 8.76565 9.87227C8.35165 9.87227 8.01265 9.53702 8.01265 9.12227C8.01265 8.70752 8.34415 8.37227 8.7589 8.37227H8.76565ZM5.75875 8.37227C6.17275 8.37227 6.50875 8.70752 6.50875 9.12227C6.50875 9.53702 6.17275 9.87227 5.75875 9.87227C5.34475 9.87227 5.00575 9.53702 5.00575 9.12227C5.00575 8.70752 5.338 8.37227 5.752 8.37227H5.75875Z" fill="#FFFFFE"/>
</g>
<defs>
<clipPath id="clip0_1179_1464">
<rect width="18" height="18" fill="white"/>
</clipPath>
</defs>
</svg>
