<svg width="18" height="18" viewBox="0 0 18 18" fill="none" xmlns="http://www.w3.org/2000/svg">
<g clip-path="url(#clip0_1179_1469)">
<path fill-rule="evenodd" clip-rule="evenodd" d="M12.2505 1.5C14.7922 1.5 16.5 3.2835 16.5 5.937V12.063C16.5 14.7165 14.7923 16.5 12.2498 16.5H5.74875C3.207 16.5 1.5 14.7165 1.5 12.063V5.937C1.5 3.2835 3.207 1.5 5.74875 1.5H12.2505ZM12.2505 2.625H5.74875C3.85125 2.625 2.625 3.92475 2.625 5.937V12.063C2.625 14.0752 3.85125 15.375 5.74875 15.375H12.2498C14.148 15.375 15.375 14.0752 15.375 12.063V5.937C15.375 3.92475 14.148 2.625 12.2505 2.625ZM7.59787 6.79695L8.9985 8.1975L10.3984 6.79852C10.6181 6.57877 10.9736 6.57877 11.1934 6.79852C11.4131 7.01828 11.4131 7.37377 11.1934 7.59352L9.7935 8.9925L11.1949 10.3947C11.4146 10.6145 11.4146 10.9699 11.1949 11.1897C11.0854 11.2999 10.9406 11.3547 10.7974 11.3547C10.6534 11.3547 10.5094 11.2999 10.3999 11.1897L8.9985 9.7875L7.59937 11.1875C7.48987 11.2978 7.34587 11.3525 7.20187 11.3525C7.05788 11.3525 6.91388 11.2978 6.80438 11.1875C6.58463 10.9678 6.58463 10.6123 6.80438 10.3925L8.2035 8.9925L6.80288 7.59195C6.58313 7.3722 6.58313 7.0167 6.80288 6.79695C7.02338 6.5772 7.37887 6.5772 7.59787 6.79695Z" fill="#FFFFFE"/>
</g>
<defs>
<clipPath id="clip0_1179_1469">
<rect width="18" height="18" fill="white"/>
</clipPath>
</defs>
</svg>
