<svg width="18" height="18" viewBox="0 0 18 18" fill="none" xmlns="http://www.w3.org/2000/svg">
<g clip-path="url(#clip0_1179_1474)">
<path fill-rule="evenodd" clip-rule="evenodd" d="M9 1.5C13.1355 1.5 16.5 4.8645 16.5 9C16.5 13.1355 13.1355 16.5 9 16.5C4.8645 16.5 1.5 13.1355 1.5 9C1.5 4.8645 4.8645 1.5 9 1.5ZM9 2.625C5.48475 2.625 2.625 5.48475 2.625 9C2.625 12.5153 5.48475 15.375 9 15.375C12.5153 15.375 15.375 12.5153 15.375 9C15.375 5.48475 12.5153 2.625 9 2.625ZM9.00292 11.0969C9.41767 11.0969 9.75292 11.4322 9.75292 11.8469C9.75292 12.2617 9.41767 12.5969 9.00292 12.5969C8.58817 12.5969 8.24918 12.2617 8.24918 11.8469C8.24918 11.4322 8.58143 11.0969 8.99543 11.0969H9.00292ZM8.99557 5.5905C9.30607 5.5905 9.55807 5.8425 9.55807 6.153V9.46725C9.55807 9.77775 9.30607 10.0297 8.99557 10.0297C8.68507 10.0297 8.43307 9.77775 8.43307 9.46725V6.153C8.43307 5.8425 8.68507 5.5905 8.99557 5.5905Z" fill="#FFFFFE"/>
</g>
<defs>
<clipPath id="clip0_1179_1474">
<rect width="18" height="18" fill="white"/>
</clipPath>
</defs>
</svg>
