<svg width="18" height="18" viewBox="0 0 18 18" fill="none" xmlns="http://www.w3.org/2000/svg">
<g clip-path="url(#clip0_1179_1489)">
<path fill-rule="evenodd" clip-rule="evenodd" d="M10.5928 2.15654L11.141 2.70479C11.3533 2.91554 11.6368 3.03254 11.9383 3.03254H12.7093C13.955 3.03254 14.9683 4.04579 14.9683 5.29154V6.06179C14.9683 6.36254 15.0853 6.64679 15.2975 6.86054L15.836 7.39979C16.2628 7.82354 16.4998 8.38979 16.5021 8.99354C16.5043 9.59729 16.271 10.165 15.8458 10.5933L15.296 11.1415C15.0853 11.3538 14.9683 11.6365 14.9683 11.938V12.7098C14.9683 13.9548 13.955 14.968 12.71 14.968H11.9368C11.6398 14.968 11.3495 15.088 11.1388 15.2973L10.6003 15.8358C10.16 16.279 9.57954 16.501 8.99904 16.501C8.42379 16.501 7.84854 16.2835 7.40829 15.847C7.40229 15.841 7.39629 15.835 7.39029 15.8283L6.85779 15.2965C6.64554 15.0858 6.36204 14.9688 6.06054 14.968H5.29104C4.04529 14.968 3.03279 13.9548 3.03279 12.7098V11.9365C3.03279 11.635 2.91504 11.3523 2.70354 11.1393L2.16429 10.6008C1.28829 9.72929 1.27779 8.31029 2.13804 7.42529L2.15829 7.40504L2.70429 6.85754C2.91504 6.64529 3.03279 6.36104 3.03279 6.06029V5.29154C3.03279 4.04654 4.04529 3.03329 5.29029 3.03254H6.06279C6.36354 3.03254 6.64704 2.91479 6.86229 2.70254L7.39854 2.16479C8.27529 1.28204 9.70854 1.27754 10.5928 2.15654ZM8.19579 2.95904L7.65654 3.49979C7.22604 3.92504 6.66129 4.15754 6.06279 4.15754H5.29104C4.66629 4.15829 4.15779 4.66679 4.15779 5.29154V6.06029C4.15779 6.66104 3.92454 7.22579 3.50154 7.65179L2.96904 8.18504C2.96379 8.19104 2.95854 8.19554 2.95329 8.20079C2.51304 8.64404 2.51529 9.36329 2.95854 9.80354L3.50004 10.345C3.92454 10.771 4.15779 11.3358 4.15779 11.9365V12.7098C4.15779 13.3345 4.66554 13.843 5.29104 13.843H6.06129C6.66279 13.8438 7.22754 14.077 7.65279 14.5008L8.19354 15.04L8.20854 15.0565C8.65104 15.4885 9.36354 15.4833 9.80304 15.0415L10.3445 14.5015C10.7645 14.0823 11.345 13.843 11.9368 13.843H12.7093C13.3348 13.843 13.8433 13.3345 13.8433 12.7098V11.938C13.8433 11.3373 14.0758 10.7725 14.5003 10.3473L15.0403 9.80654C15.26 9.58604 15.3778 9.30029 15.377 8.99729C15.3763 8.69504 15.257 8.41079 15.0418 8.19629L14.501 7.65479C14.0758 7.22654 13.8433 6.66254 13.8433 6.06179V5.29154C13.8433 4.66604 13.3348 4.15754 12.7093 4.15754H11.9383C11.3375 4.15754 10.7728 3.92429 10.3475 3.50204L9.80604 2.95979C9.35529 2.51354 8.63604 2.51579 8.19579 2.95904ZM10.8775 10.1243C11.2922 10.1243 11.6275 10.4596 11.6275 10.8743C11.6275 11.2891 11.2922 11.6243 10.8775 11.6243C10.4627 11.6243 10.1237 11.2891 10.1237 10.8743C10.1237 10.4596 10.456 10.1243 10.8707 10.1243H10.8775ZM11.3258 6.67529C11.5456 6.89504 11.5456 7.25129 11.3258 7.47104L7.47009 11.326C7.36059 11.4363 7.21659 11.491 7.07259 11.491C6.92859 11.491 6.78459 11.4363 6.67509 11.326C6.45534 11.1063 6.45534 10.7508 6.67509 10.531L10.5301 6.67529C10.7498 6.45554 11.1061 6.45554 11.3258 6.67529ZM7.12749 6.37431C7.54224 6.37431 7.87749 6.70956 7.87749 7.12431C7.87749 7.53906 7.54224 7.87431 7.12749 7.87431C6.71274 7.87431 6.37374 7.53906 6.37374 7.12431C6.37374 6.70956 6.70599 6.37431 7.12074 6.37431H7.12749Z" fill="#FFFFFE"/>
</g>
<defs>
<clipPath id="clip0_1179_1489">
<rect width="18" height="18" fill="white"/>
</clipPath>
</defs>
</svg>
