<svg width="18" height="18" viewBox="0 0 18 18" fill="none" xmlns="http://www.w3.org/2000/svg">
<g clip-path="url(#clip0_1179_2090)">
<path fill-rule="evenodd" clip-rule="evenodd" d="M11.9315 1.5C14.2895 1.5 15.8735 3.11475 15.8735 5.51775V12.4148C15.8735 14.8388 14.3383 16.4152 11.9623 16.4303L6.19251 16.4325C3.83451 16.4325 2.24976 14.8177 2.24976 12.4148V5.51775C2.24976 3.093 3.78501 1.51725 6.16101 1.503L11.9308 1.5H11.9315ZM11.9315 2.625L6.16476 2.628C4.41876 2.6385 3.37476 3.7185 3.37476 5.51775V12.4148C3.37476 14.226 4.42851 15.3075 6.19176 15.3075L11.9585 15.3053C13.7045 15.2947 14.7485 14.2133 14.7485 12.4148V5.51775C14.7485 3.7065 13.6955 2.625 11.9315 2.625ZM11.7868 11.6053C12.0973 11.6053 12.3493 11.8573 12.3493 12.1678C12.3493 12.4783 12.0973 12.7303 11.7868 12.7303H6.37183C6.06133 12.7303 5.80933 12.4783 5.80933 12.1678C5.80933 11.8573 6.06133 11.6053 6.37183 11.6053H11.7868ZM11.7868 8.4654C12.0973 8.4654 12.3493 8.7174 12.3493 9.0279C12.3493 9.3384 12.0973 9.5904 11.7868 9.5904H6.37183C6.06133 9.5904 5.80933 9.3384 5.80933 9.0279C5.80933 8.7174 6.06133 8.4654 6.37183 8.4654H11.7868ZM8.43786 5.3328C8.74836 5.3328 9.00036 5.5848 9.00036 5.8953C9.00036 6.2058 8.74836 6.4578 8.43786 6.4578H6.37161C6.06111 6.4578 5.80911 6.2058 5.80911 5.8953C5.80911 5.5848 6.06111 5.3328 6.37161 5.3328H8.43786Z" fill="#FFFFFE"/>
</g>
<defs>
<clipPath id="clip0_1179_2090">
<rect width="18" height="18" fill="white"/>
</clipPath>
</defs>
</svg>
