<svg width="18" height="18" viewBox="0 0 18 18" fill="none" xmlns="http://www.w3.org/2000/svg">
<g clip-path="url(#clip0_1179_2099)">
<path fill-rule="evenodd" clip-rule="evenodd" d="M5.52525 5.79938C5.83575 5.79938 6.08775 6.05138 6.08775 6.36188C6.08775 6.67238 5.83575 6.92438 5.52525 6.92438H4.8195C3.609 6.92438 2.625 7.90762 2.625 9.11737V12.7811C2.625 13.9954 3.612 14.9824 4.82625 14.9824H13.1812C14.3903 14.9824 15.375 13.9976 15.375 12.7886V9.12562C15.375 7.91137 14.3872 6.92438 13.1745 6.92438H12.4755C12.165 6.92438 11.913 6.67238 11.913 6.36188C11.913 6.05138 12.165 5.79938 12.4755 5.79938H13.1745C15.0083 5.79938 16.5 7.29187 16.5 9.12562V12.7886C16.5 14.6186 15.0105 16.1074 13.1812 16.1074H4.82625C2.9925 16.1074 1.5 14.6156 1.5 12.7811V9.11737C1.5 7.28737 2.98875 5.79938 4.8195 5.79938H5.52525ZM9.0006 2.25C9.3111 2.25 9.5631 2.502 9.5631 2.8125L9.5625 10.482L10.7893 9.2505C11.0083 9.03 11.3638 9.03 11.5843 9.249C11.8041 9.468 11.8048 9.82425 11.5858 10.0447L9.4039 12.2352C9.3826 12.2572 9.35952 12.2773 9.33491 12.2956L9.39885 12.24C9.3747 12.2645 9.34849 12.2865 9.32062 12.3058C9.30361 12.3176 9.28633 12.3282 9.26847 12.3379C9.25985 12.3426 9.25081 12.3472 9.24165 12.3516C9.2253 12.3593 9.2085 12.3664 9.19132 12.3726C9.1827 12.3756 9.1741 12.3785 9.16544 12.3811C9.14432 12.3877 9.12259 12.3929 9.10041 12.3969C9.09543 12.3977 9.09087 12.3985 9.08631 12.3992C9.06842 12.402 9.04976 12.4039 9.03085 12.4049C9.02064 12.4055 9.01063 12.4057 9.0006 12.4057L8.97075 12.4035L8.9243 12.4006C8.921 12.4002 8.9177 12.3997 8.9144 12.3992L9.0006 12.4057C8.96708 12.4057 8.93383 12.4028 8.90123 12.3969C8.87867 12.3929 8.857 12.3877 8.83585 12.3812C8.8274 12.3785 8.81911 12.3758 8.81088 12.3729C8.79364 12.3667 8.77662 12.3597 8.76005 12.3518C8.74998 12.347 8.73997 12.3419 8.73011 12.3365C8.71626 12.3289 8.7029 12.3208 8.68992 12.3122C8.68103 12.3063 8.67214 12.3 8.66343 12.2934C8.642 12.2774 8.62179 12.2598 8.60291 12.2409L8.60235 12.24L6.41535 10.0447C6.19635 9.82425 6.1971 9.468 6.41685 9.249C6.63735 9.03 6.99285 9.03 7.21185 9.2505L8.4375 10.482L8.4381 2.8125C8.4381 2.502 8.6901 2.25 9.0006 2.25Z" fill="#FFFFFE"/>
</g>
<defs>
<clipPath id="clip0_1179_2099">
<rect width="18" height="18" fill="white"/>
</clipPath>
</defs>
</svg>
