<svg width="18" height="18" viewBox="0 0 18 18" fill="none" xmlns="http://www.w3.org/2000/svg">
<g clip-path="url(#clip0_1179_2109)">
<path fill-rule="evenodd" clip-rule="evenodd" d="M8.619 1.52754C8.9295 1.52754 9.1815 1.77954 9.1815 2.09004C9.1815 2.40054 8.9295 2.65254 8.619 2.65254H5.81475C3.87675 2.65254 2.625 3.98004 2.625 6.03429V12.2698C2.625 14.324 3.87675 15.6515 5.81475 15.6515H12.4327C14.3707 15.6515 15.6233 14.324 15.6233 12.2698V9.24879C15.6233 8.93829 15.8753 8.68629 16.1858 8.68629C16.4963 8.68629 16.7483 8.93829 16.7483 9.24879V12.2698C16.7483 14.9653 15.0135 16.7765 12.4327 16.7765H5.81475C3.234 16.7765 1.5 14.9653 1.5 12.2698V6.03429C1.5 3.33879 3.234 1.52754 5.81475 1.52754H8.619ZM15.1512 2.18649L16.0639 3.09924C16.5087 3.54324 16.7532 4.13349 16.7525 4.76199C16.7525 5.39049 16.5079 5.97999 16.0639 6.42324L10.4322 12.055C10.019 12.4682 9.46845 12.6962 8.88345 12.6962H6.07395C5.92245 12.6962 5.77695 12.6347 5.6712 12.526C5.56545 12.418 5.5077 12.2717 5.51145 12.1195L5.58195 9.28524C5.5962 8.72124 5.82345 8.19099 6.22245 7.79124L11.828 2.18649C12.7445 1.27149 14.2347 1.27149 15.1512 2.18649ZM11.3663 4.23849L7.0182 8.58699C6.82395 8.78124 6.7137 9.03924 6.70695 9.31299L6.6507 11.5712H8.88345C9.16845 11.5712 9.43545 11.461 9.6372 11.2592L14.0115 6.88374L11.3663 4.23849ZM12.6229 2.98224L12.1613 3.44274L14.8065 6.08874L15.269 5.62749C15.5 5.39649 15.6275 5.08899 15.6275 4.76199C15.6275 4.43424 15.5 4.12599 15.269 3.89499L14.3562 2.98224C13.8785 2.50599 13.1014 2.50599 12.6229 2.98224Z" fill="#FFFFFE"/>
</g>
<defs>
<clipPath id="clip0_1179_2109">
<rect width="18" height="18" fill="white"/>
</clipPath>
</defs>
</svg>
