<svg width="18" height="18" viewBox="0 0 18 18" fill="none" xmlns="http://www.w3.org/2000/svg">
<g clip-path="url(#clip0_1179_2119)">
<path fill-rule="evenodd" clip-rule="evenodd" d="M6.57999 8.69901C6.59349 8.71101 6.60624 8.72226 6.61899 8.73576C7.42824 9.56526 7.87449 10.664 7.87449 11.8303V14.8183L9.55149 13.9048C9.68349 13.8328 9.76524 13.6918 9.76524 13.5365V11.8213C9.76524 10.6595 10.207 9.56451 11.0087 8.73951L14.6365 4.88076C14.8712 4.63101 15.0002 4.30326 15.0002 3.95751V3.25551C15.0002 2.90751 14.7257 2.62476 14.3897 2.62476H3.23649C2.89974 2.62476 2.62524 2.90751 2.62524 3.25551V3.95751C2.62524 4.30326 2.75424 4.63101 2.98899 4.88001L6.57999 8.69901ZM7.60975 16.1255C7.45824 16.1255 7.30824 16.085 7.17174 16.004C6.90774 15.8465 6.74949 15.5683 6.74949 15.2593V11.8303C6.74949 10.979 6.43224 10.1773 5.85399 9.56301C5.83674 9.54876 5.81949 9.53301 5.80449 9.51651L2.16999 5.65176C1.73799 5.19276 1.50024 4.59051 1.50024 3.95751V3.25551C1.50024 2.28726 2.27949 1.49976 3.23649 1.49976H14.3897C15.346 1.49976 16.1252 2.28726 16.1252 3.25551V3.95751C16.1252 4.58976 15.8875 5.19126 15.457 5.65101L11.8217 9.51651C11.2195 10.1375 10.8902 10.9543 10.8902 11.8213V13.5365C10.8902 14.1035 10.5835 14.6225 10.09 14.8925L8.01924 16.0205C7.89024 16.0903 7.74999 16.1255 7.60975 16.1255Z" fill="#FFFFFE"/>
</g>
<defs>
<clipPath id="clip0_1179_2119">
<rect width="18" height="18" fill="white"/>
</clipPath>
</defs>
</svg>
