<svg width="18" height="18" viewBox="0 0 18 18" fill="none" xmlns="http://www.w3.org/2000/svg">
<g clip-path="url(#clip0_1179_2149)">
<path fill-rule="evenodd" clip-rule="evenodd" d="M7.23201 1.5C7.94526 1.50075 8.62476 1.84125 9.05076 2.4105L9.734 3.3195C9.95076 3.6075 10.295 3.77925 10.655 3.78H12.7768C15.6733 3.78 17.0225 5.26425 17.0225 8.451L17.0015 12.1762C17.0008 15.1522 15.1513 17.0018 12.1738 17.0018H6.33726C3.35376 17.0018 1.49976 15.1515 1.49976 12.174V6.32475C1.49976 3.123 2.92401 1.5 5.73201 1.5H7.23201ZM7.23126 2.625H5.73201C3.55401 2.625 2.62476 3.732 2.62476 6.32475V12.174C2.62476 14.562 3.94326 15.8768 6.33726 15.8768H12.1738C14.5618 15.8768 15.8765 14.562 15.8765 12.174V12.1718L15.8975 8.448C15.8975 5.89875 15.023 4.905 12.7768 4.905H10.6543C9.94251 4.90425 9.26301 4.5645 8.83551 3.996L8.15076 3.0855C7.93551 2.79675 7.59126 2.62575 7.23126 2.625ZM12.5369 10.6596C12.8474 10.6596 13.0994 10.9116 13.0994 11.2221C13.0994 11.5326 12.8474 11.7846 12.5369 11.7846H5.98566C5.67516 11.7846 5.42316 11.5326 5.42316 11.2221C5.42316 10.9116 5.67516 10.6596 5.98566 10.6596H12.5369Z" fill="#FFFFFE"/>
</g>
<defs>
<clipPath id="clip0_1179_2149">
<rect width="18" height="18" fill="white"/>
</clipPath>
</defs>
</svg>
