<svg width="18" height="18" viewBox="0 0 18 18" fill="none" xmlns="http://www.w3.org/2000/svg">
<g clip-path="url(#clip0_1179_2209)">
<path fill-rule="evenodd" clip-rule="evenodd" d="M7.61049 3.90258C7.93524 4.15758 8.12199 4.53783 8.12199 4.94583C8.12199 8.23458 8.23299 9.11958 8.68674 9.45633C8.98449 9.67608 9.39249 9.67383 10.7672 9.63558C11.4062 9.61683 12.2245 9.59283 13.2962 9.59283C13.7237 9.59283 14.1265 9.77583 14.3995 10.0946C14.653 10.3908 14.764 10.7778 14.7055 11.1588C14.2045 14.4026 11.4445 16.7583 8.14299 16.7583C4.47999 16.7583 1.50024 13.7786 1.50024 10.1163C1.50024 7.21233 3.69624 4.30833 6.39549 3.64383C6.81699 3.54108 7.26999 3.63708 7.61049 3.90258ZM6.73674 4.72758C6.71274 4.72758 6.68874 4.73058 6.66474 4.73658C4.43724 5.28483 2.62524 7.69833 2.62524 10.1163C2.62524 13.1583 5.10024 15.6333 8.14299 15.6333C10.8857 15.6333 13.1777 13.6796 13.5932 10.9871C13.5962 10.9646 13.6067 10.8993 13.5452 10.8266C13.4867 10.7583 13.3937 10.7178 13.2962 10.7178C12.238 10.7178 11.4302 10.7418 10.7995 10.7598C9.27249 10.8056 8.64099 10.8228 8.01699 10.3601C7.12472 9.69906 7.00741 8.58779 6.99773 5.46936L6.99699 4.94583C6.99699 4.88283 6.96999 4.83033 6.91599 4.78833C6.86574 4.74858 6.80199 4.72758 6.73674 4.72758ZM15.038 2.80031C16.3565 4.11806 17.1935 5.84981 17.1695 7.21256C17.1605 7.74431 16.7743 8.18831 16.2523 8.26706C15.2338 8.42081 14.0413 8.46731 12.986 8.46731C12.0035 8.46731 11.1388 8.42756 10.6415 8.39906C10.016 8.36231 9.51804 7.86356 9.48204 7.23806C9.42354 6.24656 9.29679 3.72731 9.3868 1.77881C9.41154 1.21256 9.86904 0.761806 10.4285 0.752056C12.0313 0.705556 13.685 1.44956 15.038 2.80031ZM10.5245 1.87631H10.508C10.4255 3.76556 10.5478 6.20606 10.6048 7.17281C10.6078 7.23056 10.6498 7.27256 10.7068 7.27556C11.4778 7.31981 14.1343 7.44281 16.0446 7.16156C16.049 6.10856 15.3283 4.68056 14.243 3.59606C13.13 2.48456 11.813 1.87631 10.5245 1.87631Z" fill="#FFFFFE"/>
</g>
<defs>
<clipPath id="clip0_1179_2209">
<rect width="18" height="18" fill="white"/>
</clipPath>
</defs>
</svg>
