<svg width="18" height="18" viewBox="0 0 18 18" fill="none" xmlns="http://www.w3.org/2000/svg">
<g clip-path="url(#clip0_1179_2154)">
<path fill-rule="evenodd" clip-rule="evenodd" d="M12.2252 1.5C14.764 1.5 16.4702 3.27825 16.4702 5.92425V12.0382C16.4702 14.6842 14.764 16.4625 12.2252 16.4625H5.73774C3.20274 16.4625 1.50024 14.6842 1.50024 12.0382V5.92425C1.50024 3.27825 3.20274 1.5 5.73774 1.5H12.2252ZM12.2252 2.625H5.73774C3.84699 2.625 2.62524 3.92025 2.62524 5.92425V12.0382C2.62524 14.043 3.84699 15.3375 5.73774 15.3375H12.2252C14.1205 15.3375 15.3452 14.043 15.3452 12.0382V5.92425C15.3452 3.92025 14.1205 2.625 12.2252 2.625ZM12.7045 9.07455C12.7092 9.07841 12.7139 9.08225 12.7237 9.09138L12.7382 9.10521C12.7411 9.10805 12.7443 9.11119 12.7479 9.11466L12.7897 9.15623C12.925 9.29166 13.2988 9.67347 14.413 10.8175C14.6297 11.0395 14.626 11.3958 14.4032 11.6126C14.1812 11.8308 13.8242 11.824 13.6075 11.6021C13.6075 11.6021 12.0707 10.0248 11.9612 9.9183C11.845 9.82305 11.6582 9.76755 11.4745 9.78555C11.2877 9.8043 11.1197 9.89355 11.0005 10.0383C9.25749 12.1526 9.23649 12.1728 9.20799 12.2006C8.56449 12.8321 7.52574 12.8216 6.89349 12.1765C6.89349 12.1765 6.19599 11.4685 6.18399 11.4543C6.01074 11.2938 5.70174 11.3043 5.51649 11.5L4.36899 12.7098C4.25799 12.8268 4.10949 12.8853 3.96099 12.8853C3.82149 12.8853 3.68274 12.8343 3.57399 12.7308C3.34824 12.5178 3.33924 12.1608 3.55299 11.9366L4.69899 10.7268C5.30574 10.0826 6.32949 10.0511 6.97674 10.6586L7.69524 11.3876C7.89549 11.59 8.22099 11.5938 8.42199 11.3958C8.49774 11.3066 10.1312 9.3228 10.1312 9.3228C10.4417 8.9463 10.8797 8.7138 11.3665 8.6658C11.854 8.62305 12.3272 8.7648 12.7045 9.07455ZM6.41889 4.97167C7.45539 4.97242 8.29764 5.81543 8.29764 6.84968C8.29764 7.88543 7.45464 8.72843 6.41889 8.72843C5.38314 8.72843 4.54089 7.88543 4.54089 6.84968C4.54089 5.81393 5.38314 4.97167 6.41889 4.97167ZM6.41814 6.09667C6.00339 6.09667 5.66589 6.43418 5.66589 6.84968C5.66589 7.26518 6.00339 7.60343 6.41889 7.60343C6.83439 7.60343 7.17264 7.26518 7.17264 6.84968C7.17264 6.43493 6.83439 6.09742 6.41814 6.09667Z" fill="#FFFFFE"/>
</g>
<defs>
<clipPath id="clip0_1179_2154">
<rect width="18" height="18" fill="white"/>
</clipPath>
</defs>
</svg>
