<svg width="18" height="18" viewBox="0 0 18 18" fill="none" xmlns="http://www.w3.org/2000/svg">
<g clip-path="url(#clip0_1179_2159)">
<path fill-rule="evenodd" clip-rule="evenodd" d="M8.48124 1.5C10.3157 1.5 11.8082 2.9925 11.8082 4.827V5.526C11.8082 5.8365 11.5562 6.0885 11.2457 6.0885C10.9352 6.0885 10.6832 5.8365 10.6832 5.526V4.827C10.6832 3.612 9.69549 2.625 8.48124 2.625H4.82499C3.61224 2.625 2.62524 3.612 2.62524 4.827V13.1737C2.62524 14.388 3.61224 15.375 4.82499 15.375H8.48949C9.69849 15.375 10.6832 14.391 10.6832 13.182V12.4748C10.6832 12.1643 10.9352 11.9123 11.2457 11.9123C11.5562 11.9123 11.8082 12.1643 11.8082 12.4748V13.182C11.8082 15.012 10.3187 16.5 8.48949 16.5H4.82499C2.99199 16.5 1.50024 15.0082 1.50024 13.1737V4.827C1.50024 2.9925 2.99199 1.5 4.82499 1.5H8.48124ZM14.5413 6.4155L16.7373 8.60175C16.7569 8.62119 16.7745 8.6414 16.7905 8.6628L16.7373 8.60175C16.7639 8.62795 16.7875 8.65657 16.808 8.6871C16.8171 8.70093 16.8258 8.71524 16.8338 8.72994C16.8404 8.74142 16.8464 8.75341 16.852 8.7656C16.8567 8.77636 16.8613 8.78714 16.8655 8.79808C16.8711 8.81233 16.8761 8.82698 16.8804 8.84183C16.8837 8.85353 16.8867 8.86519 16.8893 8.877C16.8927 8.89133 16.8953 8.90574 16.8974 8.92026C16.8986 8.9297 16.8997 8.9396 16.9006 8.94957C16.9023 8.96667 16.9031 8.9833 16.9031 9L16.8992 9.0465L16.8977 9.07629C16.8975 9.07757 16.8974 9.07884 16.8972 9.08011L16.9031 9C16.9031 9.04163 16.8985 9.08286 16.8895 9.12294C16.8867 9.13481 16.8837 9.14647 16.8803 9.15799C16.8761 9.17302 16.8711 9.18767 16.8656 9.20209C16.8613 9.21286 16.8567 9.22364 16.8518 9.23423C16.8464 9.24659 16.8404 9.25858 16.8339 9.27034C16.8258 9.28476 16.8171 9.29907 16.8077 9.31293C16.8025 9.32115 16.7967 9.32927 16.7907 9.33724C16.7728 9.36073 16.7534 9.38283 16.7323 9.4033L14.5413 11.5852C14.4318 11.6947 14.2878 11.7495 14.1446 11.7495C14.0006 11.7495 13.8558 11.6947 13.7463 11.5837C13.5273 11.3632 13.5281 11.0078 13.7478 10.7887L14.9777 9.5625H7.30959C6.99909 9.5625 6.74709 9.3105 6.74709 9C6.74709 8.6895 6.99909 8.4375 7.30959 8.4375H14.9792L13.7478 7.212C13.5281 6.993 13.5266 6.6375 13.7463 6.417C13.9653 6.1965 14.3208 6.1965 14.5413 6.4155Z" fill="#FFFFFE"/>
</g>
<defs>
<clipPath id="clip0_1179_2159">
<rect width="18" height="18" fill="white"/>
</clipPath>
</defs>
</svg>
