<svg width="18" height="18" viewBox="0 0 18 18" fill="none" xmlns="http://www.w3.org/2000/svg">
<g clip-path="url(#clip0_1179_2279)">
<path fill-rule="evenodd" clip-rule="evenodd" d="M7.74317 15.0795C8.13167 15.5123 8.63042 15.75 9.14792 15.75H9.14867C9.66842 15.75 10.1694 15.5122 10.5587 15.0787C10.7672 14.8485 11.1227 14.8297 11.3529 15.0375C11.5839 15.2452 11.6027 15.6015 11.3949 15.8317C10.7889 16.5045 9.99167 16.875 9.14867 16.875H9.14717C8.30642 16.8743 7.51067 16.5037 6.90692 15.831C6.69917 15.6007 6.71792 15.2445 6.94892 15.0375C7.17992 14.829 7.53542 14.8478 7.74317 15.0795ZM9.18527 0.75C12.519 0.75 14.7585 3.3465 14.7585 5.77125C14.7585 7.0185 15.0758 7.54725 15.4125 8.10825C15.7455 8.66175 16.1228 9.29025 16.1228 10.4782C15.861 13.5135 12.6923 13.761 9.18527 13.761C5.67827 13.761 2.50877 13.5135 2.25001 10.5262C2.24777 9.29025 2.62502 8.66175 2.95802 8.10825L3.07558 7.91037C3.36503 7.41289 3.61202 6.87176 3.61202 5.77125C3.61202 3.3465 5.85152 0.75 9.18527 0.75ZM9.18527 1.875C6.56402 1.875 4.73702 3.9285 4.73702 5.77125C4.73702 7.3305 4.30427 8.05125 3.92177 8.68725C3.61502 9.198 3.37277 9.6015 3.37277 10.4782C3.49802 11.8927 4.43177 12.636 9.18527 12.636C13.9125 12.636 14.8755 11.8597 15 10.4295C14.9978 9.6015 14.7555 9.198 14.4488 8.68725C14.0663 8.05125 13.6335 7.3305 13.6335 5.77125C13.6335 3.9285 11.8065 1.875 9.18527 1.875Z" fill="#FFFFFE"/>
</g>
<defs>
<clipPath id="clip0_1179_2279">
<rect width="18" height="18" fill="white"/>
</clipPath>
</defs>
</svg>
