<svg width="18" height="18" viewBox="0 0 18 18" fill="none" xmlns="http://www.w3.org/2000/svg">
<g clip-path="url(#clip0_1179_2224)">
<path fill-rule="evenodd" clip-rule="evenodd" d="M10.4803 1.50024C10.5125 1.50024 10.5442 1.50297 10.575 1.5082L10.677 1.50872C10.83 1.50872 10.9762 1.57097 11.0827 1.68122L14.8822 5.64047C14.9827 5.74472 15.039 5.88497 15.039 6.02972V13.0047C15.042 14.8565 13.5375 16.3797 11.6857 16.3992L5.54924 16.4C3.69449 16.3677 2.21924 14.84 2.25074 12.995V4.86797C2.29349 3.00722 3.82949 1.50872 5.67674 1.50872L10.3855 1.5082C10.4163 1.50297 10.448 1.50024 10.4803 1.50024ZM9.91749 2.63349L5.67899 2.63372C4.43624 2.63372 3.40499 3.64022 3.37574 4.88147V13.0047C3.35399 14.24 4.33424 15.254 5.55974 15.275L5.67074 15.2742H11.6797C12.9112 15.2607 13.9155 14.243 13.914 13.0055L13.9135 6.73749L12.407 6.73824C11.0338 6.73449 9.91776 5.61549 9.91776 4.24449L9.91749 2.63349ZM10.3445 9.74777C10.655 9.74777 10.907 9.99977 10.907 10.3103C10.907 10.6208 10.655 10.8728 10.3445 10.8728H6.67026C6.35976 10.8728 6.10776 10.6208 6.10776 10.3103C6.10776 9.99977 6.35976 9.74777 6.67026 9.74777H10.3445ZM11.0425 3.26424L11.0428 4.24449C11.0428 4.99749 11.6555 5.61099 12.4085 5.61324L13.2962 5.61249L11.0425 3.26424Z" fill="#FFFFFE"/>
</g>
<defs>
<clipPath id="clip0_1179_2224">
<rect width="18" height="18" fill="white"/>
</clipPath>
</defs>
</svg>
