<svg width="18" height="18" viewBox="0 0 18 18" fill="none" xmlns="http://www.w3.org/2000/svg">
<g clip-path="url(#clip0_1179_2254)">
<path fill-rule="evenodd" clip-rule="evenodd" d="M10.4809 1.50024C10.5132 1.50024 10.5447 1.50296 10.5755 1.50816L10.6777 1.50872C10.8307 1.50872 10.977 1.57097 11.0835 1.68122L14.883 5.64047C14.9827 5.74472 15.039 5.88497 15.039 6.02972V13.0047C15.042 14.8565 13.5375 16.3797 11.6857 16.3992L5.54999 16.4C3.69524 16.3677 2.21924 14.84 2.25074 12.995V4.86797C2.29349 3.00722 3.83024 1.50872 5.67749 1.50872L10.3864 1.50816C10.4171 1.50296 10.4487 1.50024 10.4809 1.50024ZM9.91824 2.63349L5.67974 2.63372C4.43624 2.63372 3.40499 3.64022 3.37574 4.88147V13.0047C3.35399 14.24 4.33424 15.254 5.56049 15.275L5.67074 15.2742H11.6797C12.9112 15.2607 13.9155 14.243 13.914 13.0055L13.9135 6.73749L12.4077 6.73824C11.0344 6.73449 9.91844 5.61549 9.91844 4.24449L9.91824 2.63349ZM8.50836 7.28567C8.81886 7.28567 9.07086 7.53767 9.07086 7.84817L9.07074 9.12249L10.3453 9.12302C10.6558 9.12302 10.9078 9.37502 10.9078 9.68552C10.9078 9.99602 10.6558 10.248 10.3453 10.248L9.07074 10.2475L9.07086 11.5232C9.07086 11.8337 8.81886 12.0857 8.50836 12.0857C8.19786 12.0857 7.94586 11.8337 7.94586 11.5232L7.94574 10.2475L6.67101 10.248C6.36051 10.248 6.10851 9.99602 6.10851 9.68552C6.10851 9.37502 6.36051 9.12302 6.67101 9.12302L7.94574 9.12249L7.94586 7.84817C7.94586 7.53767 8.19786 7.28567 8.50836 7.28567ZM11.0432 3.26424L11.0434 4.24449C11.0434 4.99749 11.6562 5.61099 12.4092 5.61324L13.2962 5.61249L11.0432 3.26424Z" fill="#FFFFFE"/>
</g>
<defs>
<clipPath id="clip0_1179_2254">
<rect width="18" height="18" fill="white"/>
</clipPath>
</defs>
</svg>
