<svg width="18" height="18" viewBox="0 0 18 18" fill="none" xmlns="http://www.w3.org/2000/svg">
<g clip-path="url(#clip0_1179_2134)">
<path fill-rule="evenodd" clip-rule="evenodd" d="M10.4816 1.50024C10.5138 1.50024 10.5453 1.50296 10.5761 1.50816L10.6787 1.50879C10.8317 1.50879 10.978 1.57104 11.0845 1.68129L14.8832 5.63904C14.9837 5.74329 15.0401 5.88354 15.0401 6.02829V12.9028C15.0535 14.7845 13.588 16.322 11.7032 16.3985L5.68898 16.3993H5.60723C3.76977 16.3578 2.2961 14.8717 2.2512 13.0522L2.25098 4.86804C2.29448 3.00729 3.83123 1.50879 5.67848 1.50879L10.387 1.50816C10.4178 1.50296 10.4493 1.50024 10.4816 1.50024ZM9.91898 2.63349L5.67998 2.63379C4.43723 2.63379 3.40523 3.64029 3.37598 4.88154V12.9028C3.34823 14.1875 4.36073 15.2458 5.63273 15.2743H11.6807C12.9325 15.2225 13.924 14.1823 13.915 12.9073L13.915 6.73749L12.4076 6.73824C11.0351 6.73449 9.91905 5.61549 9.91905 4.24449L9.91898 2.63349ZM10.3415 10.9563C10.652 10.9563 10.904 11.2083 10.904 11.5188C10.904 11.8293 10.652 12.0813 10.3415 12.0813H6.29145C5.98095 12.0813 5.72895 11.8293 5.72895 11.5188C5.72895 11.2083 5.98095 10.9563 6.29145 10.9563H10.3415ZM8.80778 8.14232C9.11828 8.14232 9.37028 8.39432 9.37028 8.70482C9.37028 9.01532 9.11828 9.26732 8.80778 9.26732H6.29078C5.98028 9.26732 5.72828 9.01532 5.72828 8.70482C5.72828 8.39432 5.98028 8.14232 6.29078 8.14232H8.80778ZM11.044 3.26424L11.0441 4.24449C11.0441 4.99749 11.6568 5.61099 12.4091 5.61324L13.2985 5.61249L11.044 3.26424Z" fill="#FFFFFE"/>
</g>
<defs>
<clipPath id="clip0_1179_2134">
<rect width="18" height="18" fill="white"/>
</clipPath>
</defs>
</svg>
