<svg width="18" height="18" viewBox="0 0 18 18" fill="none" xmlns="http://www.w3.org/2000/svg">
<g clip-path="url(#clip0_1179_2169)">
<path fill-rule="evenodd" clip-rule="evenodd" d="M9.1875 1.5C13.4265 1.5 16.875 4.9485 16.875 9.1875C16.875 13.4265 13.4265 16.875 9.1875 16.875C4.9485 16.875 1.5 13.4265 1.5 9.1875C1.5 4.9485 4.9485 1.5 9.1875 1.5ZM9.1875 2.625C5.56875 2.625 2.625 5.56875 2.625 9.1875C2.625 12.8062 5.56875 15.75 9.1875 15.75C12.8062 15.75 15.75 12.8062 15.75 9.1875C15.75 5.56875 12.8062 2.625 9.1875 2.625ZM8.8731 6.57105C9.2631 6.7338 11.9998 8.13555 11.9998 9.18405C11.9998 10.1666 9.53685 11.5406 8.9076 11.8031C8.66235 11.9051 8.3826 12.001 8.12085 12.001C7.91835 12.001 7.72635 11.9433 7.5696 11.7873C7.44885 11.668 7.12635 11.3493 7.12485 9.25005C7.1241 7.02105 7.45935 6.68955 7.5696 6.5793C7.96185 6.1908 8.60085 6.45705 8.8731 6.57105ZM8.35035 7.5648C8.2176 8.31555 8.21535 10.1088 8.3481 10.8213C9.0066 10.5888 10.4331 9.6513 10.8171 9.18705C10.4346 8.7363 9.0261 7.8183 8.35035 7.5648Z" fill="#FFFFFE"/>
</g>
<defs>
<clipPath id="clip0_1179_2169">
<rect width="18" height="18" fill="white"/>
</clipPath>
</defs>
</svg>
