<svg width="18" height="18" viewBox="0 0 18 18" fill="none" xmlns="http://www.w3.org/2000/svg">
<g clip-path="url(#clip0_1179_2199)">
<path fill-rule="evenodd" clip-rule="evenodd" d="M12.327 0.75C15.0472 0.75 16.875 2.6595 16.875 5.50125V12.1237C16.875 14.9655 15.0472 16.875 12.327 16.875H5.298C2.57775 16.875 0.75 14.9655 0.75 12.1237V5.50125C0.75 2.6595 2.57775 0.75 5.298 0.75H12.327ZM12.327 1.875H5.298C3.219 1.875 1.875 3.29775 1.875 5.50125V12.1237C1.875 14.3272 3.219 15.75 5.298 15.75H12.327C14.4067 15.75 15.75 14.3272 15.75 12.1237V5.50125C15.75 3.29775 14.4067 1.875 12.327 1.875ZM8.8125 5.49547C9.123 5.49547 9.375 5.74748 9.375 6.05797V8.2425L11.5624 8.24265C11.8729 8.24265 12.1249 8.49465 12.1249 8.80515C12.1249 9.11565 11.8729 9.36765 11.5624 9.36765L9.375 9.3675V11.5532C9.375 11.8637 9.123 12.1157 8.8125 12.1157C8.502 12.1157 8.25 11.8637 8.25 11.5532V9.3675L6.06262 9.36765C5.75137 9.36765 5.50012 9.11565 5.50012 8.80515C5.50012 8.49465 5.75137 8.24265 6.06262 8.24265L8.25 8.2425V6.05797C8.25 5.74748 8.502 5.49547 8.8125 5.49547Z" fill="#FFFFFE"/>
</g>
<defs>
<clipPath id="clip0_1179_2199">
<rect width="18" height="18" fill="white"/>
</clipPath>
</defs>
</svg>
