<svg width="18" height="18" viewBox="0 0 18 18" fill="none" xmlns="http://www.w3.org/2000/svg">
<g clip-path="url(#clip0_1179_2229)">
<path fill-rule="evenodd" clip-rule="evenodd" d="M14.88 13.6448C14.88 16.1168 11.49 16.4026 8.94075 16.4026L8.75832 16.4024C7.13415 16.3985 3 16.2959 3 13.6298C3 11.2083 6.25376 10.8846 8.78361 10.8724L9.12317 10.8722C10.7472 10.8762 14.88 10.9787 14.88 13.6448ZM8.94075 11.9971C5.745 11.9971 4.125 12.5461 4.125 13.6298C4.125 14.7233 5.745 15.2776 8.94075 15.2776C12.1357 15.2776 13.755 14.7286 13.755 13.6448C13.755 12.5513 12.1357 11.9971 8.94075 11.9971ZM8.94075 1.49976C11.1368 1.49976 12.9225 3.28626 12.9225 5.48226C12.9225 7.67826 11.1368 9.46401 8.94075 9.46401H8.91675C6.72525 9.45726 4.95 7.67001 4.95748 5.48001C4.95748 3.28626 6.744 1.49976 8.94075 1.49976ZM8.94075 2.57076C7.335 2.57076 6.02848 3.87651 6.02848 5.48226C6.02325 7.08276 7.32 8.38776 8.919 8.39376L8.94075 8.92926V8.39376C10.5458 8.39376 11.8515 7.08726 11.8515 5.48226C11.8515 3.87651 10.5458 2.57076 8.94075 2.57076Z" fill="#FFFFFE"/>
</g>
<defs>
<clipPath id="clip0_1179_2229">
<rect width="18" height="18" fill="white"/>
</clipPath>
</defs>
</svg>
