<svg width="18" height="18" viewBox="0 0 18 18" fill="none" xmlns="http://www.w3.org/2000/svg">
<g clip-path="url(#clip0_1179_2259)">
<path fill-rule="evenodd" clip-rule="evenodd" d="M3.27743 12.959C3.27743 14.1919 4.28093 15.1955 5.51468 15.1955H6.44168C6.75217 15.1955 7.00417 15.4475 7.00417 15.758C7.00417 16.0685 6.75217 16.3205 6.44168 16.3205H5.51468C3.66068 16.3205 2.15243 14.8122 2.15243 12.959L2.15175 10.4655L1.3125 10.4662C1.002 10.4662 0.75 10.2142 0.75 9.90368C0.75 9.59317 1.002 9.34118 1.3125 9.34118L2.70419 9.3403C2.70776 9.34023 2.71134 9.3402 2.71493 9.3402L2.7255 9.3405L15.6486 9.34031C15.6524 9.34024 15.6562 9.3402 15.66 9.3402L15.6705 9.3405L17.0625 9.34118C17.373 9.34118 17.625 9.59317 17.625 9.90368C17.625 10.2142 17.373 10.4662 17.0625 10.4662L16.2225 10.4655V12.959C16.2225 14.8122 14.7142 16.3205 12.8602 16.3205H11.9565C11.646 16.3205 11.394 16.0685 11.394 15.758C11.394 15.4475 11.646 15.1955 11.9565 15.1955H12.8602C14.094 15.1955 15.0975 14.1919 15.0975 12.959V10.4655H3.27675L3.27743 12.959ZM12.8602 2.25C14.7142 2.25 16.2224 3.75825 16.2224 5.61075V6.74625C16.2224 7.05675 15.9704 7.30875 15.6599 7.30875C15.3494 7.30875 15.0974 7.05675 15.0974 6.74625V5.61075C15.0974 4.3785 14.0939 3.375 12.8602 3.375H11.9564C11.6459 3.375 11.3939 3.123 11.3939 2.8125C11.3939 2.502 11.6459 2.25 11.9564 2.25H12.8602ZM6.44182 2.25C6.75233 2.25 7.00432 2.502 7.00432 2.8125C7.00432 3.123 6.75233 3.375 6.44182 3.375H5.51482C4.28108 3.375 3.27758 4.3785 3.27758 5.61075V6.74625C3.27758 7.05675 3.02557 7.30875 2.71508 7.30875C2.40457 7.30875 2.15258 7.05675 2.15258 6.74625V5.61075C2.15258 3.75825 3.66083 2.25 5.51482 2.25H6.44182Z" fill="#FFFFFE"/>
</g>
<defs>
<clipPath id="clip0_1179_2259">
<rect width="18" height="18" fill="white"/>
</clipPath>
</defs>
</svg>
