<svg width="18" height="18" viewBox="0 0 18 18" fill="none" xmlns="http://www.w3.org/2000/svg">
<g clip-path="url(#clip0_1179_2144)">
<path fill-rule="evenodd" clip-rule="evenodd" d="M8.10371 11.1134L10.8465 15.5631C10.9665 15.7581 11.154 15.7559 11.2297 15.7454C11.3055 15.7349 11.4877 15.6884 11.5537 15.4671L14.9835 3.88339C15.0435 3.67864 14.9332 3.53914 14.8837 3.48964C14.8357 3.44014 14.6985 3.33439 14.4997 3.39064L2.90771 6.78514C2.68796 6.84964 2.63996 7.03414 2.62946 7.10989C2.61896 7.18714 2.61596 7.37839 2.81021 7.50064L7.31096 10.3154L11.2875 6.29689C11.5057 6.07639 11.862 6.07414 12.0832 6.29239C12.3045 6.51064 12.306 6.86764 12.0877 7.08814L8.10371 11.1134ZM11.1712 16.8749C10.6492 16.8749 10.1707 16.6094 9.88871 16.1534L6.98096 11.4351L2.21396 8.45389C1.70021 8.13214 1.43171 7.55914 1.51496 6.95689C1.59746 6.35464 2.01071 5.87614 2.59121 5.70589L14.1832 2.31139C14.7165 2.15539 15.288 2.30314 15.681 2.69464C16.074 3.08989 16.2202 3.66739 16.0612 4.20289L12.6315 15.7859C12.4597 16.3686 11.9797 16.7804 11.379 16.8606C11.3085 16.8696 11.2402 16.8749 11.1712 16.8749Z" fill="#FFFFFE"/>
</g>
<defs>
<clipPath id="clip0_1179_2144">
<rect width="18" height="18" fill="white"/>
</clipPath>
</defs>
</svg>
