<svg width="18" height="18" viewBox="0 0 18 18" fill="none" xmlns="http://www.w3.org/2000/svg">
<g clip-path="url(#clip0_1179_2204)">
<path fill-rule="evenodd" clip-rule="evenodd" d="M9.36266 1.5C10.2124 1.5 14.6712 3.03075 15.2614 3.621C15.7534 4.113 15.7459 4.5105 15.7114 6.4155C15.6979 7.179 15.6792 8.21925 15.6792 9.65925C15.6792 14.8207 9.77666 16.6672 9.52541 16.743C9.47216 16.7595 9.41741 16.767 9.36266 16.767C9.30791 16.767 9.25316 16.7595 9.19991 16.743C8.94866 16.6672 3.04616 14.8207 3.04616 9.65925C3.04616 8.2215 3.02741 7.18125 3.01391 6.41775C3.00775 6.07717 3.00245 5.78473 3.0007 5.5313L3.00049 5.24532C3.00692 4.30584 3.09509 3.99 3.46466 3.621C4.05341 3.03075 8.51216 1.5 9.36266 1.5ZM9.36266 2.625C8.72666 2.625 4.71416 4.038 4.25141 4.42425C4.11491 4.5615 4.10966 4.8 4.13891 6.39675C4.15241 7.16625 4.17116 8.21175 4.17116 9.65925C4.17116 13.56 8.46266 15.2917 9.36191 15.6105C10.2604 15.2902 14.5542 13.5487 14.5542 9.65925C14.5542 8.21025 14.5729 7.164 14.5872 6.3945C14.6157 4.79925 14.6104 4.56075 14.4657 4.41675C14.0119 4.038 9.99866 2.625 9.36266 2.625ZM12.1538 7.00462C12.3735 7.22437 12.3735 7.58063 12.1538 7.80037L9.23028 10.7246C9.14628 10.8092 9.0378 10.8641 8.92135 10.8826L8.83278 10.8896C8.68353 10.8896 8.54028 10.8304 8.43453 10.7246L7.01553 9.30413C6.79653 9.08438 6.79653 8.72737 7.01628 8.50837C7.23528 8.28862 7.59228 8.28862 7.81203 8.50837L8.83278 9.53063L11.3588 7.00462C11.5785 6.78487 11.934 6.78487 12.1538 7.00462Z" fill="#FFFFFE"/>
</g>
<defs>
<clipPath id="clip0_1179_2204">
<rect width="18" height="18" fill="white"/>
</clipPath>
</defs>
</svg>
