<svg width="18" height="18" viewBox="0 0 18 18" fill="none" xmlns="http://www.w3.org/2000/svg">
<g clip-path="url(#clip0_1179_2264)">
<path fill-rule="evenodd" clip-rule="evenodd" d="M9.00206 3.00037C12.1041 3.00262 14.8896 5.17687 16.4541 8.81737C16.5156 8.95912 16.5156 9.11962 16.4541 9.26137C14.8903 12.9026 12.1041 15.0769 9.00206 15.0791H8.99756C5.89556 15.0769 3.11006 12.9026 1.54556 9.26137C1.48481 9.11962 1.48481 8.95912 1.54556 8.81737C3.11006 5.17687 5.89631 3.00262 8.99756 3.00037H9.00206ZM8.99981 4.12537C6.42281 4.12612 4.07231 5.95837 2.67731 9.03937C4.07231 12.1211 6.42206 13.9534 8.99981 13.9541C11.5776 13.9534 13.9273 12.1211 15.3223 9.03937C13.9273 5.95837 11.5776 4.12612 8.99981 4.12537ZM8.99959 6.10597C10.6173 6.10597 11.9336 7.42222 11.9336 9.03997C11.9336 10.657 10.6173 11.9725 8.99959 11.9725C7.38184 11.9725 6.06634 10.657 6.06634 9.03997C6.06634 7.42222 7.38184 6.10597 8.99959 6.10597ZM8.99959 7.23097C8.00209 7.23097 7.19134 8.04247 7.19134 9.03997C7.19134 10.0367 8.00209 10.8475 8.99959 10.8475C9.99709 10.8475 10.8086 10.0367 10.8086 9.03997C10.8086 8.04247 9.99709 7.23097 8.99959 7.23097Z" fill="#FFFFFE"/>
</g>
<defs>
<clipPath id="clip0_1179_2264">
<rect width="18" height="18" fill="white"/>
</clipPath>
</defs>
</svg>
