<svg width="18" height="18" viewBox="0 0 18 18" fill="none" xmlns="http://www.w3.org/2000/svg">
<g clip-path="url(#clip0_1179_2479)">
<path d="M12.6296 4.34737C12.9144 4.34737 13.1497 4.55898 13.1869 4.83354L13.1921 4.90987L13.192 13.7599L15.2892 11.6543C15.5083 11.4341 15.8645 11.4333 16.0847 11.6525C16.2848 11.8517 16.3037 12.1641 16.1408 12.3847L16.0865 12.4479L13.0282 15.5204C13.0097 15.5386 12.991 15.555 12.9712 15.5701L13.0282 15.5204C13.0006 15.5482 12.9708 15.5724 12.9394 15.5932C12.9285 15.6 12.9171 15.607 12.9055 15.6135C12.8946 15.62 12.8837 15.6258 12.8725 15.6311C12.8616 15.6359 12.8504 15.6408 12.8391 15.6454C12.8247 15.6515 12.8099 15.6568 12.795 15.6613C12.7862 15.6637 12.7772 15.6662 12.7681 15.6685C12.7519 15.673 12.7357 15.6763 12.7193 15.6789C12.7116 15.6798 12.7036 15.6809 12.6955 15.6819C12.677 15.6844 12.6587 15.6857 12.6404 15.686C12.6368 15.6857 12.6332 15.6857 12.6296 15.6857L12.6186 15.686C12.6003 15.6857 12.582 15.6844 12.5637 15.6823L12.6296 15.6857C12.5989 15.6857 12.5689 15.6833 12.5396 15.6785C12.5233 15.6763 12.5071 15.673 12.4909 15.6689C12.4824 15.6663 12.4738 15.6639 12.4654 15.6614C12.4493 15.6569 12.4332 15.6512 12.4174 15.6448C12.4088 15.6408 12.4005 15.6372 12.3922 15.6333C12.3793 15.6278 12.3663 15.6211 12.3535 15.6139C12.342 15.6069 12.3307 15.6 12.3196 15.5926C12.3109 15.5875 12.3024 15.5815 12.294 15.5752L12.288 15.5701C12.2682 15.555 12.2494 15.5386 12.2318 15.5209L12.2308 15.5204L9.1725 12.4479C8.95334 12.2278 8.95416 11.8716 9.17434 11.6525C9.3745 11.4532 9.68704 11.4358 9.90687 11.5997L9.96983 11.6543L12.067 13.7614L12.0671 4.90987C12.0671 4.59921 12.3189 4.34737 12.6296 4.34737ZM5.18325 2.3122L5.19421 2.31189C5.21254 2.31224 5.23085 2.31348 5.24908 2.31562L5.18325 2.3122C5.21389 2.3122 5.24396 2.31465 5.27328 2.31937C5.28931 2.32156 5.3054 2.32487 5.32136 2.32889C5.33074 2.33164 5.3403 2.33433 5.34975 2.33725C5.36452 2.34142 5.37882 2.34648 5.39293 2.35213C5.40313 2.35668 5.41346 2.36119 5.42362 2.366C5.4357 2.37123 5.4476 2.37737 5.45931 2.38397C5.46933 2.39014 5.47926 2.39616 5.48898 2.40246C5.49898 2.40841 5.50899 2.41537 5.51882 2.42269L5.582 2.47746L8.64033 5.54996C8.85949 5.77013 8.85867 6.12629 8.63849 6.34545C8.43833 6.54469 8.12579 6.56212 7.90596 6.39822L7.843 6.34361L5.74525 4.23564L5.74575 13.088C5.74575 13.3987 5.49391 13.6505 5.18325 13.6505C4.89848 13.6505 4.66313 13.4389 4.62589 13.1644L4.62075 13.088L4.62025 4.23639L2.52367 6.34361C2.32443 6.54377 2.01197 6.56265 1.79139 6.39977L1.72817 6.34545C1.52801 6.14621 1.50914 5.83376 1.67202 5.61317L1.72633 5.54996L4.78467 2.47746L4.81779 2.44709C4.82557 2.44043 4.83353 2.43399 4.84167 2.42776L4.78467 2.47746C4.81226 2.44974 4.84202 2.42549 4.87341 2.40473C4.88436 2.39791 4.89574 2.39094 4.90738 2.38438C4.91819 2.37787 4.92917 2.37215 4.9403 2.36682C4.95128 2.36196 4.96243 2.35706 4.97375 2.35251C4.98814 2.34636 5.00289 2.34115 5.0178 2.33657C5.02687 2.33414 5.03616 2.33154 5.04555 2.32918C5.06066 2.32503 5.07593 2.32186 5.0913 2.31932C5.10053 2.31817 5.10959 2.31691 5.11871 2.31586C5.13607 2.31348 5.15388 2.31227 5.17171 2.3119C5.17564 2.31224 5.17944 2.3122 5.18325 2.3122Z" fill="#FFFFFE"/>
</g>
<defs>
<clipPath id="clip0_1179_2479">
<rect width="18" height="18" fill="white"/>
</clipPath>
</defs>
</svg>
