<svg width="18" height="18" viewBox="0 0 18 18" fill="none" xmlns="http://www.w3.org/2000/svg">
<g clip-path="url(#clip0_1179_2494)">
<path fill-rule="evenodd" clip-rule="evenodd" d="M5.52624 6.59557C5.83674 6.59557 6.08874 6.84757 6.08874 7.15807C6.08874 7.46857 5.83674 7.72057 5.52624 7.72057H4.82649C3.61224 7.72057 2.62524 8.70757 2.62524 9.92107V13.5773C2.62524 14.7916 3.61224 15.7786 4.82649 15.7786H13.174C14.3875 15.7786 15.3752 14.7916 15.3752 13.5773V9.91432C15.3752 8.70457 14.3912 7.72057 13.1822 7.72057H12.475C12.1645 7.72057 11.9125 7.46857 11.9125 7.15807C11.9125 6.84757 12.1645 6.59557 12.475 6.59557H13.1822C15.0115 6.59557 16.5002 8.08432 16.5002 9.91432V13.5773C16.5002 15.4118 15.0077 16.9036 13.174 16.9036H4.82649C2.99274 16.9036 1.50024 15.4118 1.50024 13.5773V9.92107C1.50024 8.08732 2.99274 6.59557 4.82649 6.59557H5.52624ZM9.39819 1.66627L11.5852 3.86227C11.8042 4.08277 11.8034 4.43827 11.5837 4.65727C11.3632 4.87627 11.0077 4.87627 10.7887 4.65577L9.56199 3.42483L9.56244 11.6557H8.43744L8.43699 3.42483L7.21194 4.65577C7.10244 4.76677 6.95769 4.82152 6.81369 4.82152C6.67044 4.82152 6.52644 4.76677 6.41694 4.65727C6.19719 4.43827 6.19569 4.08277 6.41544 3.86227L8.60169 1.66627C8.81244 1.45402 9.18744 1.45402 9.39819 1.66627Z" fill="#FFFFFE"/>
</g>
<defs>
<clipPath id="clip0_1179_2494">
<rect width="18" height="18" fill="white"/>
</clipPath>
</defs>
</svg>
