<svg width="18" height="18" viewBox="0 0 18 18" fill="none" xmlns="http://www.w3.org/2000/svg">
<g clip-path="url(#clip0_1179_2524)">
<path fill-rule="evenodd" clip-rule="evenodd" d="M14.8125 7.35068C15.123 7.35068 15.375 7.60268 15.375 7.91318C15.375 11.3573 12.7315 14.1926 9.37523 14.4802L9.375 16.3125C9.375 16.623 9.123 16.875 8.8125 16.875C8.502 16.875 8.25 16.623 8.25 16.3125L8.25052 14.4802C4.89385 14.193 2.25 11.3576 2.25 7.91318C2.25 7.60268 2.502 7.35068 2.8125 7.35068C3.123 7.35068 3.375 7.60268 3.375 7.91318C3.375 10.9267 5.814 13.3792 8.8125 13.3792C11.811 13.3792 14.25 10.9267 14.25 7.91318C14.25 7.60268 14.502 7.35068 14.8125 7.35068ZM8.8125 0.75C10.8022 0.75 12.4207 2.37525 12.4207 4.37325V7.88925C12.4207 9.8865 10.8022 11.5118 8.8125 11.5118C6.82275 11.5118 5.2035 9.8865 5.2035 7.88925V4.37325C5.2035 2.37525 6.82275 0.75 8.8125 0.75ZM8.8125 1.875C7.443 1.875 6.3285 2.9955 6.3285 4.37325V7.88925C6.3285 9.2655 7.443 10.3868 8.8125 10.3868C10.1633 10.3868 11.2652 9.29598 11.2951 7.9456L9.61538 7.94535C9.30488 7.94535 9.05288 7.69335 9.05288 7.38285C9.05288 7.07235 9.30488 6.82035 9.61538 6.82035L11.295 6.81975V5.44125L10.3639 5.44193C10.0534 5.44193 9.80145 5.18992 9.80145 4.87943C9.80145 4.56892 10.0534 4.31693 10.3639 4.31693L11.2935 4.31625L11.2918 4.23168C11.2186 2.91956 10.1348 1.875 8.8125 1.875Z" fill="#FFFFFE"/>
</g>
<defs>
<clipPath id="clip0_1179_2524">
<rect width="18" height="18" fill="white"/>
</clipPath>
</defs>
</svg>
