<svg width="18" height="18" viewBox="0 0 18 18" fill="none" xmlns="http://www.w3.org/2000/svg">
<g clip-path="url(#clip0_1179_2564)">
<path fill-rule="evenodd" clip-rule="evenodd" d="M9.35541 3.25153C9.37866 3.26578 9.40191 3.28078 9.42291 3.29803C10.4367 4.09439 10.5112 5.57484 10.5148 8.53127L10.5149 8.81278C10.5149 11.9583 10.4684 13.507 9.42291 14.329C9.40191 14.3455 9.37866 14.3613 9.35466 14.3748C9.04416 14.5518 8.72841 14.6268 8.41341 14.6268C7.37016 14.6268 6.33591 13.8055 5.53041 13.1665C5.16666 12.8778 4.61691 12.4413 4.42716 12.4218C4.21191 12.4053 4.02591 12.3985 3.86166 12.394C3.26316 12.3723 2.78991 12.3565 2.23341 11.8975C1.56381 11.3461 1.50232 10.2533 1.5 9.29012L1.50066 8.97478L1.50141 8.81278L1.50066 8.65078L1.5 8.33546C1.50232 7.37241 1.56381 6.28026 2.23341 5.72878C2.79066 5.26978 3.26466 5.25328 3.86466 5.23303C4.02816 5.22703 4.21341 5.22103 4.42866 5.20528C4.61691 5.18503 5.16666 4.74853 5.53041 4.45978C6.57966 3.62653 8.01666 2.48878 9.35541 3.25153ZM15.337 3.92038C17.3718 6.84838 17.3718 10.7806 15.337 13.7064C15.2275 13.8631 15.0528 13.9471 14.875 13.9471C14.764 13.9471 14.6523 13.9141 14.554 13.8459C14.299 13.6689 14.236 13.3186 14.4138 13.0629C16.2085 10.4829 16.2085 7.14613 14.4138 4.56163C14.236 4.30663 14.299 3.95638 14.5548 3.77863C14.8098 3.60088 15.1593 3.66463 15.337 3.92038ZM8.40591 4.12978C7.75491 4.12978 6.92241 4.79053 6.22941 5.34103C5.56266 5.86978 5.03616 6.28828 4.51116 6.32728C4.27866 6.34378 4.07916 6.35128 3.90366 6.35728C3.34341 6.37603 3.20166 6.38878 2.94891 6.59728C2.65885 6.8355 2.62661 7.71684 2.6251 8.37812L2.62566 8.64553L2.62641 8.81128V8.81428L2.62566 8.98003L2.6251 9.24769C2.62661 9.90947 2.65885 10.7908 2.94891 11.029C3.20091 11.2375 3.34266 11.2495 3.90141 11.2698C4.07766 11.275 4.27791 11.2825 4.51116 11.2998C5.03616 11.338 5.56266 11.7565 6.22941 12.2853C7.05666 12.9415 8.08116 13.7553 8.76066 13.417C9.31083 12.9402 9.38547 11.7012 9.38971 9.07958L9.38991 8.81278C9.38991 6.00778 9.32916 4.70203 8.76066 4.20853C8.65041 4.15378 8.53116 4.12978 8.40591 4.12978ZM13.486 5.76906C14.5623 7.65006 14.5623 9.98256 13.486 11.8576C13.3818 12.0391 13.1928 12.1403 12.9978 12.1403C12.9025 12.1403 12.8065 12.1163 12.718 12.0653C12.4488 11.9108 12.3558 11.5666 12.5103 11.2981C13.3885 9.76731 13.3885 7.86381 12.5103 6.32856C12.3558 6.05856 12.4495 5.71506 12.7188 5.56056C12.9888 5.40906 13.3315 5.49981 13.486 5.76906Z" fill="#FFFFFE"/>
</g>
<defs>
<clipPath id="clip0_1179_2564">
<rect width="18" height="18" fill="white"/>
</clipPath>
</defs>
</svg>
