<svg width="18" height="18" viewBox="0 0 18 18" fill="none" xmlns="http://www.w3.org/2000/svg">
<g clip-path="url(#clip0_1179_2569)">
<path fill-rule="evenodd" clip-rule="evenodd" d="M12.4813 2.25C14.9615 2.25 16.979 4.2675 16.979 6.7485V12.1313C16.979 14.6115 14.9615 16.6298 12.4813 16.6298H5.99826C3.51801 16.6298 1.49976 14.6115 1.49976 12.1313V6.7485C1.49976 4.2675 3.51801 2.25 5.99826 2.25H12.4813ZM12.4813 3.375H5.99826C4.13826 3.375 2.62476 4.8885 2.62476 6.7485V12.1313C2.62476 13.9913 4.13826 15.5048 5.99826 15.5048H12.4813C14.3413 15.5048 15.854 13.9913 15.854 12.1313V11.9213L13.3806 11.9217C11.9578 11.9217 10.7998 10.7645 10.7991 9.34245C10.7991 7.91895 11.9571 6.76095 13.3806 6.7602L15.854 6.75975V6.7485C15.854 4.8885 14.3413 3.375 12.4813 3.375ZM15.854 7.88475L13.3806 7.8852C12.5773 7.88595 11.9241 8.5392 11.9241 9.3417C11.9241 10.1434 12.5781 10.7967 13.3806 10.7967L15.854 10.7963V7.88475ZM13.7238 8.7327C14.0343 8.7327 14.2863 8.9847 14.2863 9.2952C14.2863 9.6057 14.0343 9.8577 13.7238 9.8577H13.4898C13.1793 9.8577 12.9273 9.6057 12.9273 9.2952C12.9273 8.9847 13.1793 8.7327 13.4898 8.7327H13.7238ZM9.51351 5.65357C9.82401 5.65357 10.076 5.90557 10.076 6.21607C10.076 6.52657 9.82401 6.77857 9.51351 6.77857H5.46426C5.15376 6.77857 4.90176 6.52657 4.90176 6.21607C4.90176 5.90557 5.15376 5.65357 5.46426 5.65357H9.51351Z" fill="#FFFFFE"/>
</g>
<defs>
<clipPath id="clip0_1179_2569">
<rect width="18" height="18" fill="white"/>
</clipPath>
</defs>
</svg>
