<svg width="32" height="32" viewBox="0 0 32 32" fill="none" xmlns="http://www.w3.org/2000/svg">
<path fill-rule="evenodd" clip-rule="evenodd" d="M30.9999 7.19582C30.9999 10.5697 28.2579 13.306 24.877 13.306C21.4961 13.306 18.7556 10.5697 18.7556 7.19582C18.7556 3.82193 21.4961 1.08569 24.877 1.08569C28.2579 1.08569 30.9999 3.82193 30.9999 7.19582Z" stroke="#2CB67D" stroke-width="2" stroke-linecap="round" stroke-linejoin="round"/>
<path fill-rule="evenodd" clip-rule="evenodd" d="M13.2443 7.19582C13.2443 10.5697 10.5038 13.306 7.12138 13.306C3.74195 13.306 1 10.5697 1 7.19582C1 3.82193 3.74195 1.08569 7.12138 1.08569C10.5038 1.08569 13.2443 3.82193 13.2443 7.19582Z" stroke="#2CB67D" stroke-width="2" stroke-linecap="round" stroke-linejoin="round"/>
<path fill-rule="evenodd" clip-rule="evenodd" d="M30.9999 24.8056C30.9999 28.1795 28.2579 30.9142 24.877 30.9142C21.4961 30.9142 18.7556 28.1795 18.7556 24.8056C18.7556 21.4317 21.4961 18.6954 24.877 18.6954C28.2579 18.6954 30.9999 21.4317 30.9999 24.8056Z" stroke="#2CB67D" stroke-width="2" stroke-linecap="round" stroke-linejoin="round"/>
<path fill-rule="evenodd" clip-rule="evenodd" d="M13.2443 24.8056C13.2443 28.1795 10.5038 30.9142 7.12138 30.9142C3.74195 30.9142 1 28.1795 1 24.8056C1 21.4317 3.74195 18.6954 7.12138 18.6954C10.5038 18.6954 13.2443 21.4317 13.2443 24.8056Z" stroke="#2CB67D" stroke-width="2" stroke-linecap="round" stroke-linejoin="round"/>
</svg>
