<svg width="24" height="32" viewBox="0 0 24 32" fill="none" xmlns="http://www.w3.org/2000/svg">
<path fill-rule="evenodd" clip-rule="evenodd" d="M11.7189 30.9998C5.93732 30.9998 1 30.1051 1 26.5217C1 22.9382 5.906 19.6302 11.7189 19.6302C17.5004 19.6302 22.4378 22.9062 22.4378 26.4896C22.4378 30.0716 17.5318 30.9998 11.7189 30.9998Z" stroke="#2CB67D" stroke-width="1.5" stroke-linecap="round" stroke-linejoin="round"/>
<path fill-rule="evenodd" clip-rule="evenodd" d="M11.7077 14.6647C15.5018 14.6647 18.5769 11.6064 18.5769 7.83308C18.5769 4.05974 15.5018 1 11.7077 1C7.91357 1 4.83695 4.05974 4.83695 7.83308C4.82418 11.5937 7.87797 14.652 11.6593 14.6647C11.6764 14.6647 11.692 14.6647 11.7077 14.6647Z" stroke="#2CB67D" stroke-width="1.5" stroke-linecap="round" stroke-linejoin="round"/>
</svg>
